<?xml version="1.0" standalone="no"?>
<!DOCTYPE svg PUBLIC "-//W3C//DTD SVG 20010904//EN"
 "http://www.w3.org/TR/2001/REC-SVG-20010904/DTD/svg10.dtd">
<svg version="1.0" xmlns="http://www.w3.org/2000/svg"
 width="750.000000pt" height="562.000000pt" viewBox="0 0 50 50"
 preserveAspectRatio="xMidYMid meet">

<g transform="translate(0.000000,562.000000) scale(0.100000,-0.100000)"
fill="#000000" stroke="none">
<path d="M0 4403 c0 -681 4 -1212 9 -1204 11 16 51 -2 51 -24 0 -7 6 -16 12
-18 8 -3 5 -6 -5 -6 -11 -1 -21 8 -24 19 -3 11 -10 20 -15 20 -6 0 -8 -7 -4
-15 3 -9 0 -15 -9 -15 -12 0 -14 -55 -15 -350 0 -311 1 -353 16 -375 9 -15 13
-25 8 -23 -5 2 -10 0 -11 -4 -2 -5 -1 -7 1 -5 2 1 13 -6 24 -16 26 -24 18 -50
-14 -44 l-24 4 0 -193 c0 -123 4 -194 10 -194 6 0 10 5 10 10 0 6 11 10 24 10
34 0 86 -11 86 -19 -1 -8 -88 -61 -101 -61 -5 0 -9 6 -9 14 0 8 -4 17 -9 20
-5 3 -9 -32 -10 -79 0 -65 3 -84 12 -78 9 5 9 3 -1 -9 -10 -12 -12 -200 -12
-892 l1 -876 299 0 c257 1 300 3 300 15 0 8 5 15 10 15 6 0 10 -7 10 -15 0
-19 66 -21 73 -2 4 9 6 9 6 0 1 -18 137 -18 144 0 4 9 6 9 6 0 1 -18 98 -18
104 0 4 9 6 9 6 0 1 -10 33 -13 127 -13 l126 0 -7 30 c-4 17 -2 30 3 30 5 0
15 -13 22 -30 7 -17 16 -30 20 -30 12 0 20 28 14 45 -4 11 1 15 17 15 22 0 23
1 6 18 -17 16 -19 16 -33 -2 -13 -19 -14 -19 -14 -1 0 10 -3 16 -6 12 -4 -3
-13 1 -22 9 -12 12 -15 46 -16 168 l-1 152 27 -14 c16 -7 28 -16 28 -18 0 -3
-4 -2 -10 1 -5 3 -10 -1 -10 -9 0 -21 36 -21 44 0 6 16 8 16 24 0 10 -9 27
-16 38 -16 11 0 25 -5 31 -11 6 -6 19 -9 29 -7 15 3 11 9 -22 31 -34 23 -40
32 -36 52 2 14 0 25 -6 25 -6 0 -12 10 -14 23 -4 26 37 49 71 40 17 -4 21 -1
21 19 0 14 9 37 21 52 17 21 19 29 9 41 -7 8 -20 15 -29 15 -14 1 -14 2 -1 13
8 7 15 19 15 27 0 8 9 15 19 15 13 0 22 10 27 27 5 21 4 28 -7 28 -23 0 -74
-42 -90 -73 -8 -15 -19 -25 -24 -22 -21 13 -8 39 40 86 28 27 50 51 50 53 0 3
-13 0 -30 -5 -16 -6 -30 -15 -30 -21 0 -12 -26 -38 -39 -38 -17 0 0 113 21
136 14 16 16 23 7 26 -10 3 -9 11 2 36 8 18 17 32 20 32 4 0 11 -19 17 -41 12
-46 3 -83 -22 -92 -9 -4 -16 -14 -16 -22 0 -24 32 -14 46 13 l11 22 11 -26 c9
-18 19 -24 34 -22 12 2 23 -3 26 -11 3 -10 0 -12 -12 -8 -21 8 -21 -2 0 -17
15 -11 15 -20 -1 -101 -13 -71 -14 -90 -3 -96 14 -9 38 7 38 27 0 7 10 16 21
19 12 4 17 10 12 14 -12 7 -13 42 -2 35 5 -3 14 4 21 16 7 11 16 20 21 20 4 0
6 -4 2 -9 -3 -5 -1 -12 5 -16 5 -3 10 0 10 7 1 7 8 1 16 -14 8 -16 19 -28 24
-28 6 0 10 -9 10 -20 0 -11 7 -20 15 -20 8 0 21 -12 29 -28 8 -15 23 -35 34
-45 11 -11 18 -26 15 -37 -3 -12 2 -20 16 -25 12 -3 21 -14 21 -24 0 -10 18
-30 40 -45 23 -15 45 -38 50 -52 12 -31 11 -172 -1 -180 -22 -13 1 -104 26
-104 6 0 18 -11 25 -25 12 -23 19 -25 86 -25 49 0 74 4 77 13 4 9 7 9 18 0 19
-19 139 -17 139 1 0 7 -6 19 -14 26 -8 6 -13 17 -10 24 3 7 -2 18 -10 25 -13
11 -16 7 -21 -23 -4 -19 -4 -39 0 -45 9 -16 -9 -13 -49 7 -35 17 -51 40 -20
28 8 -3 12 -2 9 4 -3 6 -23 10 -43 10 -24 0 -48 9 -67 25 -72 58 -80 66 -68
71 18 8 16 31 -2 38 -8 3 -15 17 -15 31 0 19 4 24 13 18 6 -4 20 -6 30 -5 9 2
17 -1 17 -7 0 -5 8 -12 19 -16 10 -3 38 -23 61 -45 42 -39 60 -48 60 -32 0 11
-57 62 -69 62 -6 0 -11 5 -11 10 0 6 -11 15 -24 20 -22 8 -106 107 -106 124 0
4 9 4 20 1 26 -8 25 -1 -2 25 -18 17 -19 20 -5 20 17 0 29 -5 77 -30 41 -22
140 -49 145 -40 7 11 -5 18 -65 36 -28 8 -54 23 -57 32 -9 23 -33 46 -40 38
-3 -3 0 -13 8 -23 13 -15 12 -16 -6 -9 -11 5 -31 11 -45 14 -14 2 -31 9 -38
15 -8 6 -22 11 -32 12 -38 3 -74 68 -86 155 -3 27 -15 63 -26 80 -15 26 -21
30 -33 20 -11 -9 -12 -17 -5 -30 13 -24 13 -57 0 -65 -15 -9 -42 15 -36 31 3
7 1 16 -4 19 -4 3 -11 24 -15 48 -3 23 -9 51 -12 61 -5 17 -6 17 -14 3 -6 -9
-5 -33 1 -59 12 -55 12 -61 -1 -52 -6 3 -20 27 -31 51 -15 33 -17 47 -8 58 8
10 8 15 -3 22 -12 7 -47 97 -47 122 0 16 18 13 39 -7 11 -9 27 -23 36 -31 11
-8 15 -21 11 -37 -8 -31 12 -41 23 -12 8 20 10 21 16 6 6 -16 125 -93 125 -82
0 3 -13 19 -30 36 -16 16 -30 39 -30 51 0 13 -12 30 -29 41 l-28 19 27 24 c26
21 30 22 57 8 29 -14 83 -103 83 -135 0 -9 7 -26 16 -39 13 -18 14 -25 4 -31
-9 -6 -9 -13 3 -31 8 -13 22 -55 32 -94 21 -79 50 -135 71 -135 20 0 17 18 -4
25 -18 5 -23 19 -64 153 -10 35 -6 48 11 38 6 -4 36 -42 68 -84 56 -76 120
-142 136 -142 8 0 0 10 -50 70 -7 8 -29 33 -48 55 -39 44 -81 122 -71 132 3 4
17 -4 31 -17 14 -13 25 -19 25 -14 0 5 4 4 8 -1 13 -18 132 -95 147 -95 26 0
16 20 -20 41 -19 12 -35 25 -35 30 0 5 -8 9 -17 9 -10 0 -31 9 -48 20 l-30 20
30 0 c17 -1 41 -7 54 -14 14 -8 40 -11 60 -9 43 6 48 10 34 24 -8 8 -17 8 -30
0 -12 -6 -24 -6 -29 -1 -5 4 -36 17 -69 28 -45 14 -60 24 -60 38 0 14 8 19 32
21 25 2 40 -5 69 -32 44 -42 57 -39 20 5 -37 45 -33 52 22 45 l47 -6 -38 19
c-21 10 -45 28 -53 40 -8 12 -21 22 -29 22 -7 0 -31 21 -51 48 -60 74 -59 73
-38 66 10 -4 26 -12 34 -18 29 -21 60 -36 75 -36 26 0 7 19 -43 43 l-47 22 37
3 c22 2 47 -3 62 -13 19 -12 26 -13 32 -4 4 7 2 15 -4 17 -7 2 -12 12 -12 23
0 10 -4 19 -10 19 -5 0 -10 5 -10 10 0 6 30 8 82 5 71 -5 86 -9 108 -31 35
-34 91 -79 117 -93 19 -9 24 -8 37 11 9 12 19 18 23 14 4 -4 0 -13 -10 -20
-25 -19 -22 -25 19 -42 28 -12 39 -13 44 -4 10 17 47 -4 55 -31 4 -12 13 -28
21 -37 44 -51 65 -83 59 -92 -3 -5 5 -14 19 -20 14 -5 58 -28 97 -50 39 -22
75 -38 78 -34 3 3 -3 12 -13 20 -11 8 -18 15 -15 15 19 6 60 11 87 11 39 -1
41 9 5 26 -32 15 -63 16 -63 2 0 -5 -17 -10 -38 -10 -42 0 -112 42 -132 80
-13 25 -1 26 31 2 13 -9 34 -23 47 -30 37 -20 27 10 -18 56 -47 49 -40 60 15
27 22 -14 65 -37 95 -52 30 -15 61 -33 68 -40 8 -7 22 -18 32 -23 11 -6 17
-17 14 -25 -4 -10 0 -15 14 -15 11 0 22 7 26 15 3 8 0 15 -6 15 -11 0 -37 29
-38 43 0 5 9 5 20 2 14 -5 20 -2 20 9 0 11 -10 16 -33 16 -18 0 -53 11 -77 24
-25 14 -59 31 -76 40 -38 19 -140 113 -131 122 8 8 65 -28 66 -41 0 -5 19 -14
43 -18 24 -5 49 -14 56 -19 20 -17 24 -3 5 14 -23 20 -94 58 -109 58 -7 0 -14
7 -18 15 -7 20 18 19 38 -1 9 -8 20 -12 26 -9 6 3 24 -1 42 -9 17 -9 33 -14
36 -11 3 2 -3 7 -12 11 -9 3 -16 10 -16 16 0 16 43 -3 83 -37 21 -18 59 -38
85 -45 26 -7 54 -14 63 -16 14 -4 103 -65 138 -96 8 -7 24 -14 35 -15 11 -2
25 -8 30 -13 6 -6 18 -10 27 -10 9 0 27 -9 40 -20 20 -16 21 -19 7 -20 -9 0
-19 4 -22 8 -3 5 -26 6 -51 2 -42 -6 -47 -5 -79 29 -36 37 -115 91 -135 91
-18 0 -13 -37 7 -45 15 -6 15 -8 -6 -25 -13 -11 -21 -24 -17 -30 10 -16 19
-12 30 13 15 32 52 23 99 -26 49 -50 35 -58 -32 -18 -58 37 -62 37 -62 10 0
-14 12 -26 43 -39 23 -10 64 -39 90 -64 26 -25 56 -46 68 -46 11 0 30 -6 42
-14 12 -8 52 -19 88 -25 80 -13 79 -13 79 -1 0 6 -8 10 -18 10 -10 0 -27 7
-38 15 -19 14 -18 14 3 15 12 0 32 -4 45 -9 13 -5 32 -12 43 -16 19 -6 19 -7
-4 -19 l-24 -13 24 -17 c27 -19 49 -21 49 -5 0 8 4 8 13 1 14 -12 162 -72 177
-72 6 0 10 5 10 10 0 6 -5 10 -11 10 -18 0 -99 43 -99 52 0 25 111 -26 136
-63 10 -15 22 -25 26 -23 4 3 5 -2 2 -10 -3 -9 -13 -16 -20 -16 -8 0 -17 -7
-20 -15 -5 -12 -25 -15 -90 -15 -46 0 -93 4 -106 9 -13 5 -45 14 -72 20 -27 7
-71 27 -97 46 -49 37 -83 46 -73 20 7 -17 -11 -21 -22 -4 -3 6 -32 27 -63 47
-31 20 -75 54 -99 76 -24 23 -48 43 -53 44 -5 2 -9 10 -9 17 0 8 -9 17 -21 20
-33 11 -33 -1 0 -25 17 -12 31 -28 31 -35 0 -16 85 -105 100 -105 5 0 10 -7
10 -16 0 -10 6 -14 14 -11 7 3 44 -17 82 -44 48 -35 78 -49 101 -49 23 0 47
-12 88 -45 31 -25 68 -51 83 -57 49 -20 136 -60 207 -95 55 -27 65 -30 51 -14
-19 21 -19 21 1 21 23 0 45 -11 110 -53 24 -15 47 -27 52 -27 6 0 26 -9 46
-20 20 -11 44 -20 55 -20 10 0 30 -5 44 -12 20 -9 23 -14 15 -25 -9 -10 -7
-13 9 -13 11 0 22 6 25 13 3 9 9 9 26 0 16 -10 362 -13 1636 -13 l1615 0 0
2810 0 2810 -2468 0 c-1906 0 -2471 -3 -2480 -12 -9 -9 -12 -9 -12 0 0 9 -156
12 -670 12 l-670 0 0 -39 c0 -22 -5 -43 -10 -46 -6 -4 -10 12 -10 39 l0 46
-40 0 -40 0 0 -40 c0 -22 -4 -40 -10 -40 -11 0 -13 11 -10 53 2 28 -23 39 -33
15 -4 -10 -6 -10 -6 0 -1 9 -112 12 -521 12 l-520 0 0 -1217z m1160 1182 c0
-14 -4 -25 -10 -25 -5 0 -10 11 -10 25 0 14 5 25 10 25 6 0 10 -11 10 -25z
m101 -82 c-9 -15 -10 -13 -11 14 0 17 3 40 8 50 5 14 8 11 10 -14 2 -18 -1
-41 -7 -50z m2247 12 c-45 -37 -78 -89 -71 -114 7 -29 -15 -71 -38 -71 -22 0
-49 -37 -49 -65 0 -12 -5 -26 -11 -32 -7 -7 -6 -12 5 -16 11 -5 16 0 16 14 0
11 6 22 14 25 8 3 16 14 19 25 3 13 14 19 31 19 14 0 26 5 26 10 0 6 11 10 25
10 14 0 29 8 35 20 6 11 15 20 20 20 16 0 12 -46 -5 -60 -18 -15 -20 -40 -3
-40 6 0 4 -8 -6 -19 -9 -10 -14 -25 -11 -33 5 -12 -6 -20 -39 -33 -34 -13 -46
-24 -51 -45 -6 -27 -88 -98 -107 -92 -6 1 -17 -5 -25 -15 -8 -10 -12 -12 -8
-5 3 6 1 12 -4 12 -6 0 -11 -4 -11 -10 0 -5 -7 -10 -15 -10 -11 0 -14 7 -9 25
9 38 -8 30 -65 -30 -29 -30 -56 -55 -59 -55 -4 0 -23 -15 -42 -33 -19 -18 -42
-36 -50 -40 -8 -4 -26 -15 -39 -24 -18 -13 -23 -14 -19 -3 2 7 12 18 23 24 10
6 34 29 54 51 20 22 45 49 56 60 11 12 33 40 49 63 16 23 35 42 42 42 8 0 14
6 14 14 0 8 7 22 16 31 23 23 10 31 -14 8 -11 -10 -29 -25 -40 -33 -40 -30
-92 -80 -92 -89 0 -10 -30 -24 -37 -17 -2 2 8 17 22 32 14 16 39 46 55 68 46
59 128 146 139 146 6 0 9 -16 8 -36 -1 -20 3 -39 9 -41 16 -6 34 46 32 92 -1
22 6 55 15 74 9 19 17 44 17 57 0 30 16 40 23 14 9 -35 26 -22 59 45 25 51 37
65 54 65 14 0 25 8 29 21 6 17 9 18 22 7 13 -11 12 -15 -9 -33z m-3091 3 c-3
-8 -6 -5 -6 6 -1 11 2 17 5 13 3 -3 4 -12 1 -19z m1728 3 c-3 -6 -11 -11 -17
-11 -6 0 -6 6 2 15 14 17 26 13 15 -4z m-1706 -54 c0 -21 -1 -21 -9 -2 -12 28
-12 37 0 30 6 -3 10 -16 9 -28z m2807 -35 c-14 -14 -16 -14 -16 -1 0 20 23 44
29 28 2 -6 -4 -18 -13 -27z m-1096 7 c0 -5 -7 -9 -15 -9 -15 0 -20 12 -9 23 8
8 24 -1 24 -14z m-800 -28 c0 -6 -4 -13 -10 -16 -5 -3 -10 1 -10 9 0 9 5 16
10 16 6 0 10 -4 10 -9z m2152 -13 c-7 -7 -12 -8 -12 -2 0 14 12 26 19 19 2 -3
-1 -11 -7 -17z m-3372 -71 c0 -5 -4 -5 -10 -2 -5 3 -10 14 -10 23 0 15 2 15
10 2 5 -8 10 -19 10 -23z m1266 -24 c-8 -15 -15 -22 -16 -15 0 17 20 55 27 49
2 -3 -2 -18 -11 -34z m2254 21 c-13 -15 -91 -57 -96 -51 -3 3 94 64 105 66 2
1 -2 -6 -9 -15z m-2906 -59 c23 -43 23 -43 2 -34 -28 13 -66 68 -59 86 7 19
26 2 57 -52z m61 35 c-3 -5 1 -10 9 -10 9 0 16 -4 16 -10 0 -13 -11 -12 -32 4
-10 7 -15 16 -11 19 10 11 25 8 18 -3z m2885 -9 c0 -14 -73 -57 -110 -64 l-35
-7 44 25 c23 14 47 25 51 25 4 0 13 7 20 15 14 16 30 20 30 6z m-3008 -28 c10
-9 18 -26 18 -37 0 -19 -3 -18 -25 9 -36 44 -31 63 7 28z m908 -18 c-7 -9 -15
-13 -18 -10 -3 2 1 11 8 20 7 9 15 13 18 10 3 -2 -1 -11 -8 -20z m1547 -31
c-16 -15 -27 -35 -27 -51 0 -18 -13 -41 -37 -65 -36 -37 -69 -54 -43 -23 7 9
10 18 7 21 -3 4 -26 -14 -50 -40 -25 -25 -47 -46 -51 -46 -17 0 -1 25 52 78
31 33 79 85 106 116 35 41 52 54 60 46 7 -7 3 -18 -17 -36z m-2742 26 c3 -5 1
-10 -4 -10 -6 0 -11 5 -11 10 0 6 2 10 4 10 3 0 8 -4 11 -10z m100 -28 c-8 -8
-25 10 -25 26 0 13 2 13 14 -4 8 -10 13 -21 11 -22z m143 15 c2 -12 -1 -15
-12 -11 -19 7 -22 38 -3 32 6 -3 13 -12 15 -21z m-33 -17 c9 -16 12 -30 7 -30
-15 0 -44 38 -37 49 9 16 13 14 30 -19z m2362 8 c-3 -8 -6 -5 -6 6 -1 11 2 17
5 13 3 -3 4 -12 1 -19z m-1717 8 c0 -3 -4 -8 -10 -11 -5 -3 -10 -1 -10 4 0 6
5 11 10 11 6 0 10 -2 10 -4z m2413 -11 c2 -8 -30 -25 -113 -64 -14 -6 -40 -20
-58 -31 -18 -11 -38 -18 -43 -15 -18 12 -8 30 24 44 64 26 142 61 157 71 17
10 31 8 33 -5z m241 -19 c-3 -9 -10 -16 -14 -16 -5 0 -22 -12 -39 -26 -17 -14
-31 -22 -31 -17 0 11 82 85 87 79 2 -2 1 -11 -3 -20z m-891 -31 c-17 -23 -42
-39 -50 -32 -7 8 39 57 53 57 12 0 12 -4 -3 -25z m-86 -57 c-3 -7 -5 -2 -5 12
0 14 2 19 5 13 2 -7 2 -19 0 -25z m813 24 c0 -16 -77 -90 -100 -96 -19 -6 -11
6 33 48 58 56 67 63 67 48z m30 -42 c0 -5 -9 -14 -20 -20 -19 -10 -20 -10 -8
9 13 22 28 28 28 11z m-126 -106 c-127 -107 -151 -124 -176 -124 -15 0 -30 -4
-33 -10 -3 -5 -15 -10 -25 -10 -14 0 -19 -6 -17 -22 1 -17 -5 -23 -29 -28 -18
-4 -53 -19 -79 -34 -56 -31 -55 -30 -55 -11 0 8 4 15 9 15 5 0 14 20 20 44 10
42 42 75 73 76 12 1 30 19 62 65 12 17 16 17 30 6 15 -12 22 -10 54 22 39 37
72 50 79 30 2 -6 -5 -21 -16 -32 -36 -36 -20 -58 17 -25 9 8 37 30 62 48 50
37 69 28 24 -10z m-654 11 c0 -14 -33 -54 -41 -49 -10 6 19 54 32 54 5 0 9 -2
9 -5z m-179 -118 c-13 -13 -15 21 -3 50 6 15 8 13 10 -11 2 -16 -1 -33 -7 -39z
m109 32 c-7 -11 -14 -18 -17 -15 -3 3 0 12 7 21 18 21 23 19 10 -6z m255 -29
c-10 -11 -20 -18 -23 -15 -7 6 18 35 31 35 5 0 2 -9 -8 -20z m-291 -23 c-3 -9
-16 -23 -30 -31 -24 -17 -23 -46 2 -46 13 0 19 13 15 33 -1 5 6 7 16 5 13 -3
17 -11 15 -33 -2 -16 -9 -33 -15 -37 -8 -5 -6 -8 6 -8 15 0 14 -5 -10 -35 -33
-41 -76 -61 -103 -49 -14 7 -17 13 -10 24 9 13 11 13 20 0 5 -8 10 -12 10 -8
0 3 3 14 7 24 4 12 3 15 -5 10 -22 -13 -23 21 -3 60 12 21 21 49 21 62 0 13 7
25 18 28 9 3 24 9 32 14 19 10 22 7 14 -13z m822 14 c-3 -5 -35 -32 -70 -61
-38 -31 -62 -58 -59 -66 2 -7 -16 -33 -41 -57 -25 -24 -46 -48 -46 -54 0 -10
-84 -93 -94 -93 -2 0 -2 10 1 23 6 23 54 86 103 136 17 16 30 35 30 41 0 9 5
9 16 -1 15 -12 16 -11 10 7 -10 32 95 128 147 133 5 1 6 -3 3 -8z m-936 -16
c0 -8 -4 -15 -10 -15 -5 0 -10 7 -10 15 0 8 5 15 10 15 6 0 10 -7 10 -15z
m-407 -62 c-19 -49 -73 -152 -83 -158 -9 -5 -9 -2 -3 11 6 11 21 42 34 69 35
70 49 95 54 95 2 0 1 -8 -2 -17z m701 -7 c-6 -16 -79 -76 -92 -76 -4 0 -21
-13 -37 -30 -16 -16 -34 -30 -39 -30 -16 0 -38 -38 -26 -45 6 -3 10 -1 10 4 0
6 8 11 17 11 13 0 11 -6 -10 -28 -15 -15 -27 -33 -27 -39 0 -16 -78 -83 -97
-83 -13 0 -7 10 20 38 20 21 37 40 37 43 0 3 -12 4 -27 1 -19 -3 -50 -30 -98
-83 -79 -89 -102 -103 -51 -31 18 26 46 75 62 109 26 55 33 62 64 68 19 4 53
17 76 30 48 27 187 133 192 146 2 5 10 9 18 9 7 0 11 -6 8 -14z m61 -21 c-16
-13 -31 -23 -33 -21 -7 7 23 45 38 49 27 6 26 -4 -5 -28z m-193 -7 c-7 -7 -12
-8 -12 -2 0 6 3 14 7 17 3 4 9 5 12 2 2 -3 -1 -11 -7 -17z m268 -1 c0 -2 -9
-12 -19 -21 -13 -11 -21 -14 -26 -7 -3 6 4 15 17 20 28 12 28 12 28 8z m-987
-32 c-3 -13 -11 -30 -19 -36 -22 -18 -30 18 -9 41 24 27 33 25 28 -5z m252 3
c-4 -13 -13 -28 -21 -34 -8 -6 -14 -17 -14 -25 -1 -15 -50 -80 -50 -65 0 4 17
39 38 77 36 68 60 91 47 47z m725 -33 c-7 -9 -15 -13 -17 -11 -7 7 7 26 19 26
6 0 6 -6 -2 -15z m-70 -15 c-23 -20 -30 -24 -30 -16 0 9 32 36 42 36 6 0 1 -9
-12 -20z m-120 -15 c0 -15 -32 -65 -41 -65 -6 0 -6 7 1 20 6 10 10 23 9 27 -3
17 2 23 16 23 8 0 15 -2 15 -5z m360 -5 c0 -5 -2 -10 -4 -10 -3 0 -8 5 -11 10
-3 6 -1 10 4 10 6 0 11 -4 11 -10z m2047 -5 c19 -8 44 -15 55 -15 10 0 17 -4
14 -9 -3 -5 -29 -5 -58 0 -29 5 -68 12 -85 15 -18 3 -33 9 -33 14 0 15 66 12
107 -5z m-2337 -14 c0 -5 -7 -12 -16 -15 -14 -5 -15 -4 -4 9 14 17 20 19 20 6z
m334 -16 c-4 -8 -11 -15 -16 -15 -6 0 -8 -9 -5 -21 4 -13 -4 -31 -24 -54 -16
-18 -29 -37 -28 -42 5 -31 -42 -93 -72 -93 -10 0 -19 -7 -19 -15 0 -8 -9 -19
-19 -24 -15 -9 -20 -7 -25 11 -3 12 1 29 8 38 26 31 28 40 7 40 -12 0 -21 -6
-21 -14 0 -8 -7 -16 -15 -20 -10 -4 -13 -14 -9 -34 8 -38 -20 -82 -52 -82 -12
0 -26 -4 -29 -10 -9 -14 -25 -12 -25 3 0 8 12 19 26 26 21 9 25 17 21 39 -4
22 2 34 36 66 26 24 37 41 29 44 -10 3 -10 7 -1 18 17 20 28 17 22 -6 -3 -11
-1 -20 4 -20 5 0 16 9 26 20 9 11 24 20 33 20 15 0 15 -2 0 -25 -9 -14 -12
-25 -7 -25 14 0 39 27 46 50 3 11 11 20 16 20 6 0 17 7 26 16 17 17 9 30 -22
36 -16 4 -12 8 20 24 22 10 44 25 48 32 11 17 28 15 21 -3z m2206 6 c0 -5 -9
-7 -20 -4 -11 3 -20 7 -20 9 0 2 9 4 20 4 11 0 20 -4 20 -9z m-3440 -28 c0
-29 -2 -29 -19 5 -10 18 -9 22 4 22 10 0 15 -9 15 -27z m515 -11 c-6 -4 -17
-20 -25 -36 -19 -38 -41 -47 -32 -13 11 39 45 78 57 66 6 -6 6 -12 0 -17z
m3302 22 c-3 -3 -12 -4 -19 -1 -8 3 -5 6 6 6 11 1 17 -2 13 -5z m-3619 -44
c-13 -21 -28 -27 -28 -10 0 5 8 14 18 19 23 14 24 14 10 -9z m540 -2 c-2 -6
-10 -14 -16 -16 -7 -2 -10 2 -6 12 7 18 28 22 22 4z m606 -42 c-16 -14 -33
-25 -39 -25 -5 0 5 13 23 30 19 17 36 28 39 25 3 -3 -8 -16 -23 -30z m1896 24
c0 -5 -4 -10 -10 -10 -5 0 -10 5 -10 10 0 6 5 10 10 10 6 0 10 -4 10 -10z
m-3256 -27 c-4 -16 -8 -29 -8 -30 -1 -1 -7 11 -13 27 -10 27 -9 30 8 30 16 0
18 -5 13 -27z m785 -2 c-7 -10 -27 -23 -45 -30 -18 -7 -43 -25 -54 -42 -12
-16 -30 -29 -41 -29 -27 0 -24 17 9 37 15 10 29 20 32 24 7 9 93 58 103 59 4
0 2 -8 -4 -19z m3215 -7 c7 -28 -5 -51 -22 -40 -6 3 -15 19 -20 36 -10 28 -9
30 12 30 17 0 26 -7 30 -26z m-2706 4 c-3 -7 -13 -15 -24 -17 -16 -3 -17 -1
-5 13 16 19 34 21 29 4z m1832 -33 c51 -26 65 -45 33 -45 -23 0 -95 42 -101
58 -6 18 13 15 68 -13z m-2670 7 c0 -14 -39 -46 -47 -39 -3 4 2 16 12 27 19
21 35 26 35 12z m838 -24 c-2 -6 -13 -16 -23 -22 -10 -6 -30 -23 -43 -38 -21
-24 -62 -39 -62 -22 0 3 17 25 38 49 27 33 44 44 65 45 18 0 27 -5 25 -12z
m1493 -11 c11 -7 19 -15 19 -19 0 -14 -38 -9 -54 7 -8 8 -21 15 -30 15 -8 0
-18 5 -22 11 -9 15 59 3 87 -14z m159 -19 c0 -6 -10 -8 -22 -4 -13 3 -33 6
-45 6 -13 0 -23 5 -23 10 0 6 7 10 15 10 8 0 15 4 15 9 0 5 14 3 30 -5 17 -9
30 -20 30 -26z m334 9 c17 -27 -3 -32 -29 -7 -14 13 -25 27 -25 31 0 13 43 -6
54 -24z m674 19 c6 -4 12 -16 12 -26 0 -21 36 -31 61 -16 9 5 28 6 43 2 26 -6
27 -9 24 -62 -3 -49 -5 -54 -23 -50 -26 7 -73 -14 -78 -36 -7 -26 -74 -35
-110 -14 -16 9 -41 16 -57 16 -16 0 -32 5 -35 10 -4 6 11 10 37 10 48 0 74 12
64 28 -4 8 -15 8 -31 2 -16 -6 -25 -5 -28 3 -2 6 -14 12 -28 12 -13 1 -36 7
-51 13 -16 7 -39 16 -52 21 -13 5 -26 19 -29 30 -4 17 1 22 21 27 15 4 35 13
44 21 29 26 52 12 59 -34 10 -74 25 -73 32 2 3 28 6 50 6 50 23 3 110 -3 119
-9z m-5674 -12 c3 -9 6 -23 6 -32 0 -22 -19 -2 -25 26 -4 25 10 30 19 6z
m5086 -36 c0 -16 -29 -8 -40 11 -18 35 -11 45 15 21 14 -13 25 -27 25 -32z
m-3254 -19 c-26 -59 -49 -85 -66 -74 -6 3 -10 -3 -10 -16 0 -12 -8 -31 -17
-41 -13 -15 -14 -21 -5 -27 10 -6 9 -16 -3 -44 -18 -44 -24 -47 -17 -11 3 19
1 25 -7 20 -17 -11 -14 49 4 64 11 9 14 22 10 41 -5 22 1 34 32 66 44 45 95
85 100 80 2 -2 -8 -28 -21 -58z m2948 26 c17 -14 41 -28 55 -31 59 -13 93 -27
98 -40 3 -8 15 -14 27 -14 11 0 41 -14 66 -30 49 -32 35 -41 -27 -15 -19 8
-45 15 -57 15 -33 0 -143 39 -157 56 -15 18 -39 18 -39 -1 0 -18 -14 -19 -41
-4 -24 13 -16 29 16 29 23 0 44 29 22 32 -7 0 -16 2 -22 3 -5 2 -17 4 -25 5
-8 1 -4 6 10 10 39 12 43 12 74 -15z m-2250 -18 c8 -13 3 -24 -27 -55 -20 -21
-37 -44 -37 -52 0 -7 -3 -11 -6 -7 -9 8 -94 -73 -94 -90 0 -7 -8 -16 -17 -20
-25 -8 -155 -142 -148 -153 5 -8 -20 -23 -41 -25 -6 0 -31 -22 -56 -48 -29
-32 -51 -47 -64 -45 -16 2 -18 -2 -16 -29 4 -43 -13 -50 -33 -11 -16 32 -15
32 20 65 21 19 31 35 24 39 -6 3 -24 -6 -39 -21 l-29 -28 -6 26 c-5 18 -1 35
13 55 12 15 24 40 27 53 4 15 31 44 65 70 33 24 62 51 65 60 3 8 20 29 38 45
29 26 30 27 8 2 -15 -18 -24 -42 -26 -72 l-3 -46 23 18 c13 9 29 29 35 44 15
33 46 63 54 50 3 -5 -4 -20 -17 -34 -42 -45 -107 -126 -107 -132 0 -19 29 4
110 87 49 50 90 100 90 109 0 21 17 32 24 16 7 -18 36 19 43 55 6 28 18 36 26
15 6 -17 44 20 49 47 6 37 33 43 52 12z m-454 -17 c0 -5 -5 -10 -11 -10 -5 0
-7 5 -4 10 3 6 8 10 11 10 2 0 4 -4 4 -10z m375 0 c-3 -5 -11 -10 -16 -10 -6
0 -7 5 -4 10 3 6 11 10 16 10 6 0 7 -4 4 -10z m192 -46 c-3 -4 -13 -4 -22 0
-13 5 -13 9 -3 26 l13 20 9 -20 c5 -11 6 -23 3 -26z m-482 16 c-10 -11 -21
-18 -23 -15 -3 3 3 12 14 20 27 20 30 18 9 -5z m-467 -42 c-3 -20 -4 -20 -18
6 -12 24 -12 28 0 36 17 11 24 -5 18 -42z m595 27 c-3 -9 -8 -14 -10 -11 -3 3
-2 9 2 15 9 16 15 13 8 -4z m638 -26 c-19 -16 -36 -27 -38 -25 -9 8 12 38 36
50 39 21 40 8 2 -25z m-351 21 c0 -5 6 -10 14 -10 22 0 8 -36 -20 -49 -22 -10
-24 -8 -24 13 0 14 3 31 6 40 7 18 24 22 24 6z m280 0 c0 -5 -5 -10 -11 -10
-5 0 -7 5 -4 10 3 6 8 10 11 10 2 0 4 -4 4 -10z m-854 -51 c-24 -34 -117 -129
-127 -129 -17 0 -9 13 44 71 28 31 61 69 72 83 24 31 35 8 11 -25z m80 14
c-18 -34 -45 -71 -46 -61 0 15 42 88 51 88 5 0 3 -12 -5 -27z m-156 -16 c0 -2
-10 -12 -21 -23 -22 -19 -22 -19 -10 4 10 18 31 31 31 19z m950 -1 c0 -2 -7
-9 -15 -16 -12 -10 -15 -10 -15 4 0 9 7 16 15 16 8 0 15 -2 15 -4z m-360 -46
c-22 -14 -30 -12 -30 8 0 28 12 34 29 17 14 -14 14 -17 1 -25z m3360 30 c0 -5
-8 -10 -17 -10 -15 0 -16 2 -3 10 19 12 20 12 20 0z m-4090 -9 c0 -12 -20 -25
-27 -18 -7 7 6 27 18 27 5 0 9 -4 9 -9z m3035 -11 c3 -5 13 -10 22 -10 16 0
116 -61 109 -67 -2 -2 -14 0 -27 5 -13 5 -42 15 -64 22 -50 16 -87 39 -79 51
7 12 31 11 39 -1z m609 -26 c16 -8 40 -14 52 -14 20 0 65 -45 53 -53 -2 -2
-17 -9 -33 -15 -24 -11 -28 -11 -23 3 4 9 -2 19 -13 25 -11 6 -20 17 -20 24 0
16 -27 29 -42 19 -7 -3 -8 -1 -4 5 5 8 -3 12 -24 12 -19 0 -29 4 -25 10 7 12
33 6 79 -16z m-3414 -2 c0 -11 -76 -72 -90 -72 -8 0 -8 6 0 20 6 11 17 20 24
20 7 0 21 9 31 20 19 21 35 26 35 12z m3907 -7 c9 -25 -2 -27 -48 -12 -33 11
-39 16 -24 20 40 10 66 7 72 -8z m-4113 -25 c-6 -6 -15 -6 -24 0 -13 9 -13 11
0 20 18 11 39 -5 24 -20z m3529 13 c-7 -2 -19 -2 -25 0 -7 3 -2 5 12 5 14 0
19 -2 13 -5z m651 -12 c10 -11 13 -21 7 -25 -12 -8 -43 22 -36 35 8 12 9 12
29 -10z m-569 -21 c3 -5 -1 -10 -10 -10 -9 0 -13 5 -10 10 3 6 8 10 10 10 2 0
7 -4 10 -10z m173 -12 c8 -8 15 -8 25 1 17 14 47 4 47 -15 0 -8 8 -14 17 -14
12 0 14 -3 6 -11 -5 -5 -32 -9 -59 -7 -39 2 -49 6 -48 21 1 9 -2 17 -7 17 -5
0 -9 5 -9 10 0 13 13 13 28 -2z m-3738 -18 c0 -5 -5 -10 -12 -10 -6 0 -21 -8
-32 -17 -15 -13 -14 -10 3 10 25 28 41 35 41 17z m645 0 c3 -5 1 -10 -4 -10
-6 0 -11 5 -11 10 0 6 2 10 4 10 3 0 8 -4 11 -10z m-730 -10 c-3 -5 -11 -10
-16 -10 -6 0 -7 5 -4 10 3 6 11 10 16 10 6 0 7 -4 4 -10z m805 -16 c0 -17 -22
-14 -28 4 -2 7 3 12 12 12 9 0 16 -7 16 -16z m-710 -9 c0 -8 -7 -15 -15 -15
-16 0 -20 12 -8 23 11 12 23 8 23 -8z m720 -30 c0 -9 -7 -18 -15 -22 -9 -3
-15 -15 -13 -26 2 -13 -3 -23 -12 -25 -24 -4 -22 35 2 64 25 28 38 31 38 9z
m-845 -15 c-3 -5 -12 -10 -18 -10 -7 0 -6 4 3 10 19 12 23 12 15 0z m79 -4
c-7 -18 -32 -28 -39 -16 -9 15 4 30 25 30 13 0 17 -5 14 -14z m800 -7 c-6 -11
-24 -2 -24 11 0 5 7 7 15 4 8 -4 12 -10 9 -15z m3051 9 c14 -6 25 -15 25 -19
0 -9 -47 8 -64 23 -15 12 9 10 39 -4z m-3715 -29 c0 -10 -4 -19 -10 -19 -5 0
-10 12 -10 26 0 14 4 23 10 19 6 -3 10 -15 10 -26z m500 21 c0 -5 -12 -10 -26
-10 -14 0 -23 4 -19 10 3 6 15 10 26 10 10 0 19 -4 19 -10z m-1414 -31 c-14
-17 -26 -39 -26 -50 0 -10 -3 -19 -7 -19 -12 0 -66 -71 -59 -77 3 -4 17 4 31
17 l25 23 0 -22 c0 -23 -45 -70 -67 -71 -7 0 -13 7 -13 15 0 8 6 15 13 15 9 0
9 2 0 8 -7 5 -15 36 -17 73 -4 59 -2 65 16 65 15 0 18 -5 13 -23 -3 -15 -1
-23 7 -23 18 1 48 25 48 39 0 14 40 61 53 61 5 0 -3 -14 -17 -31z m1462 -3
c-7 -8 -17 -12 -22 -9 -4 3 -2 9 5 14 22 13 31 11 17 -5z m-1201 -32 c-18 -17
-27 -20 -27 -11 0 15 41 48 50 41 2 -3 -8 -16 -23 -30z m1171 10 c5 -9 13 -15
18 -14 5 1 10 -3 12 -9 7 -20 -26 -23 -52 -5 -21 13 -24 19 -15 30 15 18 26
18 37 -2z m-958 -19 c-7 -9 -23 -21 -34 -27 -15 -8 -12 -2 9 20 30 31 49 36
25 7z m-1780 5 c0 -5 -4 -10 -10 -10 -5 0 -10 5 -10 10 0 6 5 10 10 10 6 0 10
-4 10 -10z m1144 -41 c-2 -4 0 -10 6 -14 11 -7 14 -133 4 -159 -3 -9 -12 -16
-20 -16 -19 0 -18 16 1 24 21 8 19 42 -4 58 -18 13 -19 21 -6 71 5 18 3 27 -4
27 -9 0 -9 5 0 21 9 17 13 19 19 8 5 -7 7 -16 4 -20z m686 27 c0 -3 -4 -8 -10
-11 -5 -3 -10 -1 -10 4 0 6 5 11 10 11 6 0 10 -2 10 -4z m360 -4 c0 -4 -7 -17
-15 -29 -9 -12 -14 -26 -13 -30 4 -13 -59 -73 -76 -73 -9 0 -16 -4 -16 -10 0
-5 -9 -10 -20 -10 -13 0 -20 7 -20 19 0 14 5 18 19 14 26 -7 36 56 12 74 -9 7
-11 13 -5 13 5 0 15 -5 21 -11 16 -16 43 -4 43 20 0 11 6 22 13 24 20 8 57 8
57 -1z m497 -17 c7 -15 7 -25 1 -25 -13 0 -38 26 -38 39 0 21 25 11 37 -14z
m-906 -28 c-10 -9 -11 -8 -5 6 3 10 9 15 12 12 3 -3 0 -11 -7 -18z m839 -12
c0 -8 -4 -15 -10 -15 -5 0 -10 7 -10 15 0 8 5 15 10 15 6 0 10 -7 10 -15z
m-865 -15 c3 -5 1 -10 -4 -10 -6 0 -11 5 -11 10 0 6 2 10 4 10 3 0 8 -4 11
-10z m-385 -10 c0 -5 -4 -10 -10 -10 -5 0 -10 5 -10 10 0 6 5 10 10 10 6 0 10
-4 10 -10z m970 1 c0 -6 -4 -13 -10 -16 -5 -3 -10 1 -10 9 0 9 5 16 10 16 6 0
10 -4 10 -9z m-111 -47 c10 -22 8 -24 -15 -24 -22 0 -25 4 -21 21 3 12 0 22
-9 26 -8 3 -14 9 -14 14 0 17 48 -13 59 -37z m4126 10 c31 -19 79 -42 106 -50
27 -8 49 -19 49 -24 0 -18 -47 -21 -85 -6 -46 19 -65 20 -65 3 0 -9 -15 -13
-47 -12 l-47 0 -1 45 c-1 43 11 80 27 80 4 0 33 -16 63 -36z m-5035 14 c0 -7
-16 -24 -35 -38 -37 -27 -46 -46 -17 -37 58 19 59 14 5 -15 -63 -32 -88 -33
-62 -1 9 10 20 30 26 45 16 35 83 73 83 46z m4814 -4 c19 -18 12 -34 -14 -34
-22 0 -34 15 -26 35 7 19 21 19 40 -1z m66 -34 c0 -5 -7 -10 -16 -10 -8 0 -12
5 -9 10 3 6 10 10 16 10 5 0 9 -4 9 -10z m-5075 -9 c6 -11 -29 -33 -39 -24 -7
7 12 33 25 33 4 0 10 -4 14 -9z m475 -11 c0 -5 -5 -10 -11 -10 -5 0 -7 5 -4
10 3 6 8 10 11 10 2 0 4 -4 4 -10z m340 -30 c0 -13 -11 -13 -30 0 -12 8 -11
10 8 10 12 0 22 -4 22 -10z m4310 -14 c0 -3 -4 -8 -10 -11 -5 -3 -10 -1 -10 4
0 6 5 11 10 11 6 0 10 -2 10 -4z m-4815 -34 c-3 -3 -11 0 -18 7 -9 10 -8 11 6
5 10 -3 15 -9 12 -12z m453 2 c-9 -9 -21 -13 -27 -10 -20 13 -11 26 16 26 25
0 26 -1 11 -16z m207 -24 c-3 -5 0 -12 7 -16 8 -5 3 -10 -16 -15 -19 -6 -33
-3 -47 9 -19 16 -19 17 13 28 34 12 52 9 43 -6z m4010 -9 c17 -10 47 -23 68
-30 20 -7 37 -16 37 -21 0 -4 12 -10 28 -13 34 -8 92 -43 92 -57 0 -17 -22
-11 -59 14 -20 13 -47 27 -61 31 -23 7 -23 7 -7 -9 18 -18 23 -36 10 -36 -14
0 -30 15 -42 38 -6 12 -16 22 -22 22 -15 0 -76 49 -83 66 -7 19 3 18 39 -5z
m205 -17 c0 -8 -5 -12 -10 -9 -6 4 -8 11 -5 16 9 14 15 11 15 -7z m-4560 -12
c0 -5 -9 -17 -20 -27 -15 -14 -17 -20 -8 -26 7 -4 10 -10 8 -12 -49 -37 -109
-74 -114 -70 -10 10 6 106 19 120 10 9 13 7 13 -13 0 -13 -5 -24 -11 -24 -6 0
-8 -3 -5 -6 9 -9 57 19 91 53 14 14 27 16 27 5z m-344 -58 c-3 -8 -10 -12 -16
-9 -14 9 -12 42 3 48 14 5 21 -17 13 -39z m1071 19 c-9 -9 -20 -13 -24 -9 -4
4 1 14 11 22 25 18 35 8 13 -13z m3978 -10 c48 -53 25 -60 -25 -8 -25 26 -29
35 -17 35 9 0 28 -12 42 -27z m-5691 -56 c-5 -72 -23 -163 -39 -193 -9 -17
-13 -19 -23 -7 -8 8 -9 13 -2 13 6 0 8 5 4 11 -3 6 -15 9 -25 6 -11 -3 -19 -2
-19 3 0 4 9 10 20 13 25 6 27 37 3 37 -15 0 -15 2 -4 9 8 5 11 16 8 25 -5 11
-1 16 12 16 20 0 36 26 21 35 -4 3 -15 2 -24 -1 -11 -4 -16 -1 -16 10 0 19 13
20 41 5 19 -10 20 -8 18 18 -1 15 1 38 5 51 14 41 25 13 20 -51z m676 63 c0
-5 -4 -10 -10 -10 -5 0 -10 5 -10 10 0 6 5 10 10 10 6 0 10 -4 10 -10z m118
-21 c-3 -8 -7 -3 -11 10 -4 17 -3 21 5 13 5 -5 8 -16 6 -23z m-743 2 c-6 -21
10 -38 20 -21 10 17 25 1 25 -26 0 -23 3 -25 30 -19 17 4 30 3 30 -2 -1 -13
-49 -45 -60 -38 -6 3 -10 2 -10 -3 0 -19 47 -19 59 0 14 23 31 15 24 -11 -4
-15 -17 -21 -55 -26 -36 -5 -48 -11 -44 -21 3 -8 3 -14 0 -14 -12 0 -34 29
-34 44 0 9 -4 16 -10 16 -5 0 -10 9 -10 21 0 15 5 19 19 14 12 -3 21 0 25 10
3 8 1 15 -5 15 -6 0 -7 5 -4 10 3 6 2 10 -4 10 -5 0 -12 -6 -14 -12 -8 -18 -8
23 -1 50 4 12 11 22 16 22 5 0 7 -9 3 -19z m569 -65 c-9 -14 -21 -26 -26 -26
-6 0 -4 10 4 23 8 12 18 29 23 37 6 9 10 10 12 3 3 -7 -3 -23 -13 -37z m566
34 c0 -5 -7 -10 -16 -10 -8 0 -12 5 -9 10 3 6 10 10 16 10 5 0 9 -4 9 -10z
m160 1 c0 -5 -11 -16 -25 -25 -28 -18 -34 -6 -9 18 17 18 34 21 34 7z m-231
-25 c-2 -2 -15 -9 -29 -15 -24 -11 -24 -11 -6 3 16 13 49 24 35 12z m-284 -28
c-12 -38 -31 -54 -49 -38 -23 18 -20 39 7 50 38 15 49 12 42 -12z m301 -13
c-9 -14 -24 -25 -33 -25 -13 0 -10 7 12 30 33 35 45 32 21 -5z m-366 -25 c0
-5 -4 -10 -9 -10 -5 0 -11 -13 -14 -30 -7 -31 -37 -43 -37 -15 0 8 -4 15 -10
15 -21 0 -9 17 23 32 40 19 47 20 47 8z m-290 -10 c0 -5 -7 -10 -15 -10 -8 0
-15 5 -15 10 0 6 7 10 15 10 8 0 15 -4 15 -10z m575 0 c3 -5 1 -10 -4 -10 -6
0 -19 -8 -29 -18 -20 -20 -88 -39 -77 -22 3 6 12 10 18 10 7 0 23 12 36 25 24
26 46 32 56 15z m-168 -22 c-3 -8 -6 -5 -6 6 -1 11 2 17 5 13 3 -3 4 -12 1
-19z m-999 1 c-2 -6 -8 -10 -13 -10 -5 0 -11 4 -13 10 -2 6 4 11 13 11 9 0 15
-5 13 -11z m648 -24 c-5 -18 -2 -25 7 -25 23 0 77 -58 71 -75 -7 -17 -24 -20
-24 -4 0 5 -4 7 -10 4 -5 -3 -10 -15 -10 -27 0 -14 -5 -18 -16 -14 -9 3 -25 6
-36 6 -11 0 -22 8 -25 20 -3 12 -14 20 -25 20 -15 0 -18 4 -13 18 4 9 10 27
12 39 7 33 32 51 44 32 7 -11 9 -9 9 9 0 12 5 22 11 22 7 0 9 -10 5 -25z m55
-2 c-8 -15 -10 -15 -11 -2 0 17 10 32 18 25 2 -3 -1 -13 -7 -23z m245 0 c7
-10 14 -24 14 -32 0 -8 -9 -2 -20 12 -11 14 -20 28 -20 31 0 12 13 6 26 -11z
m-153 -8 c4 -8 1 -17 -4 -21 -6 -3 -9 -17 -6 -30 2 -13 0 -24 -4 -24 -5 0 -9
4 -9 8 0 5 -16 14 -35 22 -19 8 -35 17 -35 20 0 8 60 38 76 39 7 1 14 -6 17
-14z m132 -64 c-10 -16 -25 -3 -25 22 0 20 1 20 16 5 9 -9 13 -21 9 -27z m125
35 c0 -11 -19 -15 -25 -6 -3 5 1 10 9 10 9 0 16 -2 16 -4z m-183 -53 c28 -32
29 -47 3 -40 -11 3 -18 1 -14 -4 3 -5 -5 -9 -16 -9 -16 0 -20 5 -16 15 3 9 0
15 -9 15 -18 0 -19 5 -3 30 17 27 28 25 55 -7z m-299 -25 c19 -19 14 -28 -13
-28 -18 0 -25 5 -25 20 0 22 20 26 38 8z m222 -15 c0 -7 -11 -13 -25 -13 -24
0 -32 10 -19 23 11 10 44 3 44 -10z m-35 -33 c-3 -5 -15 -10 -26 -10 -10 0
-19 5 -19 10 0 6 12 10 26 10 14 0 23 -4 19 -10z m4940 -41 c4 -6 5 -13 1 -16
-8 -8 -56 6 -56 17 0 13 47 13 55 -1z m-5105 -9 c0 -5 -7 -10 -16 -10 -8 0
-12 5 -9 10 3 6 10 10 16 10 5 0 9 -4 9 -10z m-710 -50 c0 -5 -2 -10 -4 -10
-3 0 -8 5 -11 10 -3 6 -1 10 4 10 6 0 11 -4 11 -10z m70 0 c0 -5 7 -10 15 -10
8 0 15 5 15 10 0 6 4 10 10 10 11 0 1 -32 -13 -42 -13 -8 -47 13 -47 29 0 7 5
13 10 13 6 0 10 -4 10 -10z m5976 0 c63 0 -9 -55 -81 -62 -19 -2 -34 -11 -41
-26 -14 -29 -57 -77 -80 -90 -15 -8 -16 -13 -5 -40 11 -27 11 -34 -3 -47 -24
-25 -19 -52 14 -76 32 -24 31 -39 -2 -39 -16 0 -18 -3 -9 -13 6 -8 8 -17 4
-20 -10 -10 18 -37 38 -37 11 0 19 -5 19 -10 0 -6 -12 -8 -27 -6 -18 4 -30 0
-39 -12 -12 -16 -15 -15 -41 10 -27 25 -30 26 -86 15 -39 -7 -56 -15 -53 -23
3 -7 -8 -17 -26 -23 -40 -14 -38 -15 -38 14 0 20 6 27 31 32 l31 6 -26 24
c-14 13 -26 30 -26 38 0 16 26 44 43 47 7 0 17 2 22 2 16 2 35 16 35 26 0 5
-15 13 -32 18 -53 14 -48 61 7 62 15 0 20 7 20 28 0 23 -4 28 -17 24 -12 -3
-18 1 -18 11 0 9 7 14 18 12 9 -1 22 1 28 6 7 6 15 0 22 -16 9 -19 19 -25 42
-25 35 0 37 8 10 40 l-20 24 31 13 c39 16 33 36 -14 44 -45 7 -74 28 -55 40
22 14 54 10 72 -10 19 -21 64 -18 82 5 7 8 27 16 45 17 19 2 43 8 54 15 11 6
26 9 33 7 8 -3 25 -5 38 -5z m349 -10 c3 -5 1 -10 -4 -10 -6 0 -11 5 -11 10 0
6 2 10 4 10 3 0 8 -4 11 -10z m-6131 -13 c30 -16 24 -27 -14 -27 -25 0 -50 16
-50 32 0 12 35 9 64 -5z m166 3 c0 -5 -5 -10 -11 -10 -5 0 -7 5 -4 10 3 6 8
10 11 10 2 0 4 -4 4 -10z m-228 -43 c19 -30 23 -44 15 -49 -7 -4 -19 1 -28 13
-12 16 -22 19 -39 14 -22 -7 -22 -6 -7 15 8 12 13 29 10 36 -12 31 24 10 49
-29z m6101 26 c4 -3 3 -11 -3 -18 -8 -10 -18 -11 -36 -4 -37 13 -44 11 -44
-12 0 -18 -4 -21 -30 -16 -16 4 -31 3 -34 -2 -3 -4 -31 -9 -62 -10 -31 -1 -61
-4 -65 -7 -5 -3 -9 1 -9 9 0 10 16 17 49 22 26 4 61 13 76 21 15 8 39 14 54
15 14 0 35 4 46 8 18 8 36 5 58 -6z m-2878 -18 c44 -43 31 -95 -24 -95 -71 0
-100 51 -54 94 35 32 47 32 78 1z m-3360 -15 c18 15 25 0 14 -27 -5 -13 -16
-23 -25 -23 -14 0 -15 2 -3 17 10 11 10 14 2 9 -9 -5 -13 0 -12 16 0 13 3 17
6 10 4 -9 8 -10 18 -2z m382 -7 c-9 -9 -20 -13 -24 -9 -4 4 -1 11 7 16 25 16
35 11 17 -7z m-137 3 c0 -2 -7 -6 -15 -10 -8 -3 -15 -1 -15 4 0 6 7 10 15 10
8 0 15 -2 15 -4z m-850 -26 c0 -5 -11 -10 -24 -10 -14 0 -28 5 -31 10 -4 6 7
10 24 10 17 0 31 -4 31 -10z m720 -30 c0 -5 -7 -10 -15 -10 -8 0 -15 5 -15 10
0 6 7 10 15 10 8 0 15 -4 15 -10z m5730 -115 c0 -8 -9 -15 -20 -15 -11 0 -20
7 -20 15 0 8 9 15 20 15 11 0 20 -7 20 -15z m259 -116 c-16 -10 -23 -4 -14 10
3 6 11 8 17 5 6 -4 5 -9 -3 -15z m-5809 -3 c0 -11 -19 -15 -25 -6 -3 5 1 10 9
10 9 0 16 -2 16 -4z m-950 -46 c0 -5 -7 -7 -15 -4 -8 4 -12 10 -9 15 6 11 24
2 24 -11z m60 10 c0 -5 -5 -10 -11 -10 -5 0 -7 5 -4 10 3 6 8 10 11 10 2 0 4
-4 4 -10z m6602 -52 c-6 -6 -16 -7 -22 -3 -9 6 -9 9 1 16 17 10 34 0 21 -13z
m-247 -81 c15 -11 15 -16 4 -22 -7 -5 -26 -8 -41 -7 -31 3 -36 -9 -14 -31 9
-9 11 -19 6 -28 -6 -8 -4 -20 6 -30 13 -14 13 -18 0 -28 -11 -10 -20 -10 -37
-1 -24 13 -67 8 -114 -14 -31 -15 -118 -37 -123 -32 -8 9 32 86 45 86 7 0 21
13 30 28 21 37 84 66 134 64 29 -2 39 1 39 13 0 19 39 20 65 2z m-6434 -25
c-7 -2 -18 1 -23 6 -8 8 -4 9 13 5 13 -4 18 -8 10 -11z m132 1 c-7 -2 -21 -2
-30 0 -10 3 -4 5 12 5 17 0 24 -2 18 -5z m6511 -28 c27 -25 32 -35 17 -35 -16
0 -61 41 -56 51 8 12 9 12 39 -16z m-74 -54 c0 -4 -7 -8 -15 -8 -16 0 -20 9
-9 20 8 8 24 -1 24 -12z m-1233 -45 c-4 -9 -11 -16 -17 -16 -15 0 -24 26 -16
47 6 15 8 15 23 1 9 -9 13 -24 10 -32z m1153 -27 c0 -5 -7 -9 -15 -9 -8 0 -15
7 -15 15 0 9 6 12 15 9 8 -4 15 -10 15 -15z m-147 -26 c-7 -2 -13 -9 -13 -15
0 -12 70 -1 85 13 15 15 35 10 35 -10 0 -24 -23 -43 -44 -35 -11 4 -16 1 -16
-10 0 -9 7 -16 16 -16 8 0 12 -5 8 -11 -4 -8 0 -9 15 -4 17 5 21 2 21 -14 0
-11 -4 -22 -10 -26 -5 -3 -6 -13 -3 -21 4 -11 9 -12 16 -5 16 16 27 13 27 -5
0 -8 -5 -12 -11 -8 -7 4 -7 -1 1 -15 14 -26 -1 -51 -31 -51 -12 0 -19 -7 -19
-18 0 -10 -5 -23 -11 -29 -7 -7 -5 -15 6 -27 9 -9 12 -16 7 -16 -5 0 -15 7
-22 15 -14 17 -72 14 -78 -3 -2 -7 13 -21 32 -33 35 -20 47 -39 26 -39 -5 0
-10 -4 -10 -10 0 -5 7 -10 15 -10 8 0 15 -7 15 -15 0 -18 -5 -19 -30 -3 -26
16 -37 3 -17 -20 24 -26 21 -34 -10 -31 -51 4 -79 0 -64 -10 24 -15 1 -34 -35
-28 -39 6 -43 -2 -14 -28 21 -19 18 -38 -5 -29 -7 3 -11 12 -9 19 8 19 -31 37
-62 29 -20 -5 -25 -4 -19 6 6 10 -6 11 -56 7 -35 -3 -74 -8 -86 -12 -16 -5
-23 -2 -28 15 -4 12 -1 27 6 36 10 12 10 17 0 27 -10 9 -15 8 -26 -7 -9 -12
-20 -16 -31 -12 -16 6 -15 8 1 26 10 11 22 20 28 20 5 0 18 11 28 24 11 14 30
28 42 31 52 15 136 61 140 78 3 9 15 17 26 17 12 0 22 5 22 10 1 6 2 15 3 20
2 15 9 15 31 2 17 -9 18 -14 8 -31 -14 -22 -9 -28 37 -41 28 -8 30 -7 24 16
-4 14 -2 24 5 24 6 0 11 7 11 16 0 12 -6 15 -25 10 -20 -5 -25 -3 -25 12 0 9
-7 28 -16 40 -14 20 -21 22 -102 18 -48 -3 -95 -8 -105 -11 -10 -4 -17 -2 -17
4 0 26 92 98 143 112 19 5 45 18 57 29 13 11 33 22 44 25 12 2 30 6 41 8 28 6
42 6 28 0z m-1080 -157 c7 -16 -1 -26 -20 -26 -7 0 -13 9 -13 20 0 23 25 27
33 6z m-2758 -106 c3 -5 1 -10 -4 -10 -6 0 -11 5 -11 10 0 6 2 10 4 10 3 0 8
-4 11 -10z m2636 -45 c4 -24 3 -43 -3 -46 -6 -4 -7 -12 -4 -18 4 -6 1 -11 -7
-11 -15 0 -30 24 -31 50 -1 8 -11 19 -23 25 -21 9 -29 25 -19 36 3 3 22 4 43
4 36 0 38 -2 44 -40z m-3686 5 c3 -5 1 -10 -4 -10 -6 0 -11 5 -11 10 0 6 2 10
4 10 3 0 8 -4 11 -10z m4526 -24 c-7 -16 -18 -26 -30 -26 -11 0 -21 -6 -24
-12 -2 -7 -7 -10 -11 -7 -3 3 10 23 29 44 40 41 51 42 36 1z m-4454 -51 c-9
-104 -17 -115 -75 -115 -43 0 -48 3 -61 31 -16 36 -6 52 15 24 8 -11 17 -19
19 -17 16 8 35 -1 36 -15 0 -12 6 -7 16 13 14 28 13 33 -5 68 -20 36 -20 66
-1 66 5 0 9 -9 9 -21 0 -11 4 -17 10 -14 6 4 10 14 9 23 -2 27 0 32 17 32 15
0 16 -9 11 -75z m-1338 16 c21 -14 3 -32 -27 -27 -15 2 -30 5 -34 5 -15 2 -8
20 10 24 28 8 36 7 51 -2z m945 -16 c-4 -8 -10 -13 -15 -10 -4 3 -6 12 -3 20
4 8 10 13 15 10 4 -3 6 -12 3 -20z m3923 -1 c-3 -3 -12 -4 -19 -1 -8 3 -5 6 6
6 11 1 17 -2 13 -5z m-140 -50 c1 -5 -1 -15 -6 -23 -8 -12 -12 -12 -25 -2 -9
8 -16 22 -16 32 0 15 4 17 22 10 12 -4 23 -12 25 -17z m-2437 -20 c0 -8 -4
-12 -10 -9 -5 3 -10 10 -10 16 0 5 5 9 10 9 6 0 10 -7 10 -16z m-1360 -34 c-7
-17 -15 -28 -18 -26 -2 3 1 19 8 36 7 17 15 28 18 26 2 -3 -1 -19 -8 -36z
m3755 1 c-3 -5 -1 -12 4 -16 11 -6 11 -45 0 -45 -10 0 -30 -51 -23 -61 10 -17
-27 -22 -45 -5 -10 9 -25 16 -35 16 -9 0 -27 5 -38 11 -17 9 -18 13 -7 20 11
7 10 9 -3 9 -28 0 -21 17 9 25 26 6 45 -7 56 -38 4 -14 50 32 65 66 6 15 14
27 17 27 4 0 4 -4 0 -9z m75 -27 c0 -8 -4 -12 -10 -9 -5 3 -10 10 -10 16 0 5
5 9 10 9 6 0 10 -7 10 -16z m-4904 -9 c-11 -8 -27 -15 -35 -15 -13 1 -12 4 3
15 11 8 27 15 35 15 13 -1 12 -4 -3 -15z m414 -47 c0 -6 -11 -8 -25 -6 -21 4
-25 1 -25 -19 0 -14 -4 -21 -10 -18 -15 9 -12 36 6 56 13 14 21 16 35 8 11 -5
19 -15 19 -21z m1050 18 c0 -2 3 -11 6 -20 4 -11 0 -16 -14 -16 -21 0 -32 -18
-32 -51 0 -10 -7 -19 -15 -19 -18 0 -21 55 -4 66 6 3 9 15 6 25 -4 15 0 19 24
19 16 0 29 -2 29 -4z m4390 -16 c-30 -23 -40 -25 -40 -6 0 13 17 20 55 24 6 1
-1 -7 -15 -18z m-4810 1 c0 -6 -4 -13 -10 -16 -5 -3 -10 1 -10 9 0 9 5 16 10
16 6 0 10 -4 10 -9z m3820 -1 c0 -5 -10 -10 -22 -9 -22 0 -22 1 -3 9 11 5 21
9 23 9 1 1 2 -3 2 -9z m-4913 -6 c-3 -3 -12 -4 -19 -1 -8 3 -5 6 6 6 11 1 17
-2 13 -5z m2821 -51 c44 -57 64 -99 43 -91 -11 4 -91 110 -91 120 0 18 20 6
48 -29z m3336 20 c16 -3 39 -17 52 -32 21 -25 22 -26 3 -49 -15 -19 -16 -27
-6 -43 8 -13 20 -19 34 -16 12 2 28 0 35 -4 9 -6 6 -9 -9 -9 -13 0 -23 -4 -23
-8 0 -5 -21 -8 -47 -7 -86 5 -91 -1 -42 -51 34 -35 39 -45 27 -49 -9 -4 -25
-2 -36 4 -14 7 -24 6 -40 -5 -19 -13 -26 -13 -59 1 -31 13 -42 14 -60 4 -20
-11 -28 -9 -51 8 -37 27 -81 34 -114 17 -24 -12 -28 -12 -28 0 0 7 -7 19 -16
26 -12 11 -18 10 -32 -5 -13 -13 -14 -19 -4 -22 29 -11 8 -22 -43 -22 -56 0
-75 -5 -75 -22 0 -12 47 -31 78 -31 13 0 26 -7 29 -15 5 -11 17 -13 57 -8 28
4 58 13 66 20 26 23 150 25 150 3 0 -7 13 -13 29 -14 32 -1 90 -57 91 -86 0
-17 -2 -17 -35 -1 -20 9 -35 24 -35 34 0 14 -22 27 -47 27 -3 0 -10 6 -14 14
-7 10 -9 9 -9 -4 0 -19 -20 -24 -35 -9 -6 4 -25 4 -45 -1 l-35 -10 43 -15 c24
-8 50 -12 57 -9 7 2 21 -4 30 -14 9 -10 30 -22 45 -25 36 -8 57 -32 42 -47 -6
-6 -8 -17 -5 -24 8 -21 -8 -17 -49 11 -44 29 -70 33 -66 8 2 -14 -3 -17 -22
-15 -96 10 -150 12 -150 6 0 -16 35 -32 51 -23 12 6 21 4 29 -6 8 -10 21 -13
37 -8 19 4 24 2 21 -8 -3 -10 -22 -14 -61 -14 -64 -1 -97 -20 -53 -31 46 -11
13 -31 -55 -31 -47 -1 -67 4 -81 17 -11 10 -38 23 -61 30 -23 6 -48 14 -56 17
-9 3 -11 1 -7 -6 18 -28 -248 -15 -372 18 -29 8 -48 9 -60 2 -9 -6 -12 -11 -5
-11 6 0 25 -12 42 -26 17 -14 35 -22 41 -19 15 9 40 -14 33 -31 -4 -11 7 -14
56 -14 34 0 61 -4 61 -10 0 -5 5 -10 11 -10 8 0 9 4 0 13 -6 8 -8 17 -4 20 9
10 50 8 71 -2 26 -14 122 -41 144 -41 13 0 17 4 12 13 -5 8 -3 8 9 -2 9 -7 15
-17 12 -21 -3 -5 15 -19 40 -31 25 -12 45 -26 45 -30 0 -4 9 -11 20 -14 38
-12 50 -75 14 -75 -8 0 -14 -9 -14 -19 0 -11 -3 -22 -7 -24 -8 -5 -34 17 -33
28 1 28 -1 35 -10 30 -14 -9 -13 -71 2 -95 7 -10 10 -22 7 -25 -10 -9 -82 -10
-107 -1 -21 7 -22 5 -16 -18 8 -33 -8 -34 -25 -2 -12 22 -49 46 -71 46 -17 0
-11 -23 11 -46 21 -23 17 -56 -4 -35 -6 6 -21 11 -32 11 -18 0 -21 -5 -18 -32
4 -32 4 -32 -12 -13 -9 11 -14 28 -12 37 3 10 -4 23 -19 32 -27 18 -40 6 -24
-23 5 -11 10 -29 10 -41 0 -17 -4 -20 -22 -14 -12 3 -30 16 -39 28 -17 20 -17
19 -12 -26 5 -39 3 -46 -11 -44 -28 4 -41 23 -27 40 20 23 9 39 -29 41 -19 1
-45 6 -57 10 -18 6 -23 3 -23 -9 0 -9 7 -16 15 -16 29 0 75 -29 69 -44 -7 -18
12 -32 51 -35 8 0 15 -5 15 -11 0 -6 -28 -10 -64 -10 -36 0 -68 -5 -71 -10 -9
-15 -43 -3 -92 31 -23 16 -44 29 -48 29 -4 0 -20 11 -37 25 -16 14 -37 25 -46
25 -12 -1 -9 -7 13 -25 17 -14 35 -25 41 -25 6 0 22 -10 36 -22 13 -13 44 -36
69 -53 24 -16 49 -35 54 -41 6 -6 28 -24 50 -40 59 -42 130 -112 123 -119 -3
-4 -16 2 -27 12 -12 10 -30 26 -41 35 -11 10 -26 18 -34 18 -7 0 -25 9 -39 20
-14 11 -32 20 -41 20 -9 0 -16 4 -16 9 0 5 -9 7 -20 4 -13 -4 -20 0 -20 9 0 8
-12 20 -27 27 -24 11 -30 10 -43 -6 -14 -19 -15 -18 -35 11 -11 17 -30 32 -41
34 -12 2 -27 14 -34 28 -7 13 -19 24 -26 24 -6 0 -15 7 -18 16 -4 10 -13 13
-25 9 -11 -3 -22 -1 -26 5 -3 5 -15 10 -26 10 -11 0 -37 11 -57 25 -20 14 -42
25 -49 25 -7 0 -18 9 -25 20 -7 11 -18 20 -24 20 -6 0 -25 7 -43 16 -41 21
-52 11 -14 -12 36 -24 44 -35 37 -56 -4 -13 0 -18 15 -18 13 0 19 5 15 14 -4
10 2 12 20 9 28 -6 36 -23 11 -23 -17 0 -20 -16 -5 -25 8 -5 8 -11 1 -19 -13
-15 -4 -26 21 -26 10 0 18 -5 18 -10 0 -6 8 -14 18 -17 9 -4 25 -16 35 -28 18
-20 19 -20 12 0 -20 58 -21 57 31 30 33 -17 50 -22 55 -14 8 14 35 5 69 -21
22 -17 23 -20 6 -20 -15 0 -11 -7 18 -33 20 -18 36 -38 36 -43 0 -5 -18 -15
-40 -21 -22 -5 -40 -6 -40 -2 0 5 7 9 15 9 20 0 19 16 -1 24 -22 9 -36 7 -30
-3 8 -13 -55 -3 -73 12 -27 21 -60 37 -77 37 -11 0 -14 -6 -8 -22 7 -23 6 -23
-15 -4 -12 11 -21 24 -20 30 3 25 -2 36 -15 36 -8 0 -28 17 -45 38 -60 73 -64
77 -69 62 -3 -7 3 -19 14 -27 29 -21 -5 -15 -42 8 -19 11 -34 16 -34 10 0 -6
5 -11 11 -11 5 0 8 -4 4 -9 -3 -5 6 -18 20 -29 29 -23 32 -32 9 -32 -12 0 -14
-4 -6 -12 5 -7 13 -24 17 -38 6 -20 5 -23 -6 -12 -16 15 -39 16 -39 1 0 -6 9
-22 20 -36 23 -29 23 -32 10 -53 -7 -12 -12 -10 -29 9 -12 13 -21 30 -21 37 0
12 -83 74 -99 74 -5 0 -11 -11 -14 -25 -3 -17 0 -24 7 -22 14 5 66 -20 66 -32
0 -5 25 -34 55 -65 64 -65 69 -81 23 -70 -37 8 -59 31 -52 55 2 9 -3 24 -12
34 -15 15 -18 15 -33 1 -14 -15 -13 -17 7 -32 20 -14 31 -54 15 -54 -12 0 -43
33 -43 47 0 7 -4 13 -9 13 -15 0 -22 33 -9 43 9 6 6 7 -9 4 -32 -7 -55 22 -47
60 3 18 1 33 -5 37 -6 4 -11 16 -11 27 0 10 -5 19 -11 19 -7 0 -9 -12 -5 -35
5 -23 3 -35 -4 -35 -15 0 -42 68 -34 82 5 8 1 9 -10 5 -12 -5 -32 8 -69 43
-50 48 -81 62 -39 17 12 -13 22 -28 22 -35 0 -6 7 -15 16 -20 8 -5 17 -21 18
-36 4 -29 48 -82 78 -92 10 -3 18 -15 18 -27 0 -20 -1 -19 -29 7 -26 25 -30
26 -44 12 -9 -9 -20 -16 -26 -16 -14 0 -14 -17 0 -26 7 -4 43 -13 82 -20 39
-8 75 -18 81 -24 13 -13 -4 -31 -30 -31 -44 0 -134 29 -134 43 0 5 -4 8 -10 8
-17 0 -11 -22 16 -57 14 -19 24 -36 22 -38 -11 -12 -46 10 -62 39 -12 22 -24
32 -39 32 -18 -1 -22 5 -23 34 0 19 4 38 9 41 11 7 0 49 -13 49 -6 0 -20 -63
-25 -115 -1 -5 -5 -20 -9 -32 -6 -19 -11 -21 -26 -13 -10 6 -33 10 -50 10 -17
0 -56 11 -86 25 -30 14 -63 25 -72 25 -10 0 -37 9 -60 20 -51 25 -56 25 -49 0
7 -26 -11 -37 -29 -18 -13 12 -11 18 10 41 14 15 23 34 20 42 -7 16 -39 20
-48 6 -7 -10 -56 -2 -56 10 0 5 -7 9 -15 9 -8 0 -15 9 -15 20 0 13 -7 20 -20
20 -23 0 -110 41 -110 52 0 4 -17 15 -37 25 -48 22 -100 56 -135 87 -15 14
-43 32 -62 41 -20 10 -36 23 -36 31 0 18 -46 48 -64 41 -8 -3 -17 1 -20 9 -3
9 -10 13 -15 9 -5 -3 -12 -1 -16 5 -3 5 -16 10 -29 10 -12 0 -32 9 -44 21 -13
11 -28 19 -34 17 -6 -2 3 -17 21 -33 30 -29 40 -47 24 -43 -5 0 -16 -2 -27 -7
-20 -9 -57 8 -118 56 -20 16 -44 29 -52 29 -9 0 -22 11 -31 23 -8 13 -27 29
-41 36 -15 6 -24 17 -21 25 3 7 -3 20 -14 29 -10 9 -16 23 -13 32 5 12 -2 15
-34 15 -41 0 -62 13 -42 25 7 4 3 19 -11 42 -22 35 -22 35 -1 24 11 -6 24 -15
27 -21 3 -5 12 -7 20 -4 8 3 20 1 27 -5 7 -6 49 -38 93 -71 44 -32 91 -75 105
-94 25 -36 40 -45 40 -26 0 6 -7 13 -15 16 -8 4 -15 14 -15 25 0 14 -72 115
-99 139 -28 24 -91 112 -86 120 14 23 33 10 74 -49 13 -18 43 -42 65 -53 47
-21 74 -38 94 -56 7 -6 19 -12 26 -12 7 0 23 -11 36 -25 13 -14 29 -25 36 -25
7 0 21 -12 32 -27 11 -16 24 -25 27 -21 9 9 -22 44 -148 167 -53 53 -97 100
-97 105 0 5 6 3 13 -3 8 -6 17 -8 20 -5 4 4 11 -6 17 -21 11 -30 25 -25 32 10
4 17 6 16 17 -9 11 -28 12 -28 31 -11 14 12 18 25 14 39 -6 21 -6 21 10 1 8
-11 16 -30 16 -42 0 -22 9 -27 38 -24 16 2 16 -16 0 -23 -17 -6 19 -36 42 -36
9 0 25 -9 35 -20 21 -23 45 -26 45 -7 0 15 66 18 88 4 7 -5 12 -3 12 6 0 23
27 28 72 12 30 -10 46 -11 55 -3 9 7 20 6 38 -6 15 -10 34 -14 46 -11 11 4 30
0 44 -9 14 -9 25 -12 25 -7 0 6 13 2 30 -7 16 -9 30 -24 30 -32 -1 -12 -3 -12
-14 3 -7 9 -18 17 -25 17 -17 0 21 -40 47 -51 13 -5 26 -18 29 -28 3 -11 12
-22 20 -25 12 -5 14 -1 10 21 -3 16 -9 36 -12 46 -4 10 -3 17 4 17 6 0 11 -4
11 -9 0 -4 21 -14 46 -21 28 -8 65 -31 97 -59 68 -61 110 -88 115 -73 2 7 10
12 18 12 19 0 18 19 -1 26 -8 4 -15 14 -15 23 0 15 -18 28 -108 77 -71 38
-137 91 -166 133 -30 43 -47 54 -71 45 -17 -7 -19 -32 -5 -69 9 -24 8 -26 -12
-20 -13 4 -34 14 -48 24 -36 23 -79 41 -101 41 -10 0 -34 9 -53 21 -20 12 -36
17 -36 13 0 -4 -10 2 -22 13 -13 12 -32 23 -43 25 -12 2 -21 13 -23 26 -3 21
-22 32 -22 12 0 -20 -18 -9 -24 15 -4 14 -13 25 -21 25 -8 0 -15 4 -15 10 0 5
-18 14 -39 20 -29 8 -54 27 -94 73 -30 34 -58 73 -62 86 -4 14 -16 33 -26 45
-10 11 -17 22 -14 24 3 3 28 -19 57 -49 58 -61 124 -109 151 -109 10 0 20 -6
23 -14 3 -8 17 -17 32 -21 15 -4 35 -14 45 -22 25 -23 30 -12 11 25 -12 25
-22 32 -46 32 -41 0 -32 24 11 28 26 3 34 -1 38 -18 4 -14 11 -19 24 -15 10 3
36 1 58 -6 28 -8 44 -9 53 -2 10 8 37 -5 101 -47 125 -81 173 -125 158 -143
-9 -12 -6 -17 20 -26 42 -14 44 -14 29 4 -7 9 -20 13 -28 10 -12 -4 -13 -3 -3
9 14 16 27 13 101 -23 l40 -19 15 31 c17 35 19 57 5 57 -5 0 -10 5 -10 11 0 7
12 9 35 5 19 -3 52 -9 73 -12 20 -3 46 -9 57 -14 11 -5 41 -11 66 -14 69 -8
104 -23 90 -40 -9 -10 -2 -17 32 -30 23 -9 56 -16 73 -16 17 0 55 -4 85 -10
30 -5 75 -11 100 -13 25 -3 64 -13 85 -23 21 -10 43 -19 48 -19 5 0 11 -5 13
-12 4 -12 -41 -12 -54 0 -3 4 -31 7 -62 7 -71 -1 -49 -16 40 -29 63 -8 112 4
115 29 1 5 2 13 3 16 0 3 13 -4 28 -15 14 -12 28 -19 31 -16 10 9 -32 46 -49
43 -9 -2 -25 7 -35 20 -15 18 -31 24 -72 26 -61 3 -72 11 -65 47 l5 27 66 -21
c37 -11 84 -29 105 -39 32 -17 54 -19 127 -16 74 2 91 0 108 -15 17 -16 24
-17 44 -6 13 7 35 12 50 11 15 -1 29 2 33 8 6 10 -6 14 -37 11 -21 -2 -58 16
-58 29 0 5 15 10 33 12 29 3 32 6 32 38 0 19 5 35 10 35 6 -1 36 -5 69 -9 56
-8 59 -8 81 20 19 23 26 27 36 17 21 -21 136 -13 123 8 -3 5 -9 7 -14 4 -4 -3
-26 2 -48 9 -22 8 -42 12 -45 10 -7 -7 -57 14 -57 25 0 11 43 29 100 40 25 5
59 15 77 22 41 17 53 5 22 -21 -24 -20 -24 -20 -4 -35 11 -9 25 -13 32 -11 7
3 13 -1 13 -10 0 -8 11 -19 25 -24 14 -5 25 -17 25 -26 0 -8 6 -14 13 -11 20
7 47 -12 47 -33 0 -21 15 -27 25 -10 9 14 118 13 132 -1 9 -9 23 -9 54 -1 23
6 49 8 58 5 12 -5 11 0 -6 18 -11 13 -23 33 -25 44 -3 18 -12 20 -82 23 -46 2
-84 -2 -90 -8 -16 -16 -102 -12 -120 6 -18 18 -18 17 -10 38 4 10 18 16 38 16
17 0 41 7 53 15 18 13 26 13 41 4 22 -14 56 -5 50 13 -3 7 -21 17 -41 21 -36
9 -50 26 -24 28 6 1 23 3 36 4 13 1 26 8 30 14 6 8 96 30 129 31 8 0 0 58 -9
67 -22 22 -1 41 48 48 26 4 64 14 83 23 36 17 117 18 134 1 6 -5 17 -2 28 8
15 13 23 14 43 5 14 -6 25 -18 25 -26 0 -29 53 -30 64 -1 6 17 -10 30 -19 15
-11 -17 -35 -11 -35 10 0 10 -9 24 -20 30 -42 23 -8 56 45 43 11 -3 33 -7 49
-10z m-5387 -5 c3 6 11 12 18 12 19 0 26 -27 10 -40 -8 -7 -12 -17 -9 -22 4
-7 -2 -7 -17 -2 -13 4 -32 8 -41 8 -21 0 -22 9 -7 37 9 17 13 18 26 7 13 -10
17 -10 20 0z m765 -25 c0 -10 2 -29 3 -43 7 -91 16 -118 43 -129 24 -10 52
-50 52 -73 0 -4 20 -29 45 -55 34 -35 45 -54 44 -77 0 -31 -17 -83 -18 -58 -1
6 -9 12 -20 12 -25 0 -54 43 -39 58 16 16 2 27 -16 13 -9 -8 -21 -8 -37 -2
-27 10 -69 62 -69 86 0 8 -5 15 -11 15 -18 0 -1 -48 29 -86 15 -19 30 -34 35
-34 16 0 22 -5 34 -27 6 -12 9 -31 6 -43 -3 -12 0 -20 7 -20 7 0 10 -7 6 -15
-3 -8 -1 -15 4 -15 6 0 10 -6 10 -12 0 -7 8 -22 16 -33 15 -19 16 -18 9 20 -3
22 -14 46 -22 52 -27 21 -5 28 31 10 38 -17 78 -89 79 -139 1 -34 -14 -39 -28
-9 -6 12 -19 21 -32 21 -31 0 -29 -11 7 -43 17 -15 30 -34 30 -41 0 -19 32
-79 47 -89 7 -4 18 -27 24 -50 6 -23 14 -44 19 -47 14 -9 48 -86 55 -123 7
-37 -4 -48 -30 -29 -14 9 -35 81 -35 115 0 14 -4 29 -10 32 -5 3 -10 1 -10 -5
0 -7 -6 -10 -12 -8 -8 3 -14 23 -15 47 -2 50 -7 58 -28 41 -8 -7 -15 -9 -15
-6 0 4 -8 2 -18 -3 -13 -7 -24 -3 -46 16 -25 21 -27 27 -17 49 14 31 -2 39
-60 31 -65 -9 -79 -1 -79 47 -1 32 -3 37 -11 24 -5 -10 -11 -31 -12 -47 -1
-22 -8 -31 -24 -34 -23 -4 -40 18 -22 29 6 3 8 12 5 20 -3 8 1 17 9 20 8 4 15
17 15 30 0 19 -5 24 -25 24 -16 0 -25 -6 -25 -16 0 -17 -22 -14 -28 4 -2 7 3
12 12 12 12 0 16 10 16 35 0 33 -13 47 -57 60 0 0 -4 17 -8 38 -6 29 -4 37 8
37 8 0 17 -9 20 -20 3 -13 10 -18 21 -14 17 7 22 24 7 24 -16 0 -42 31 -35 41
3 6 19 7 35 4 33 -7 36 0 12 27 -16 18 -16 19 5 25 31 8 28 26 -3 21 -14 -3
-28 -1 -31 3 -3 5 -14 9 -26 9 -16 0 -19 4 -14 24 3 14 2 28 -4 31 -20 12 -9
26 18 23 22 -2 27 1 26 19 0 12 3 20 8 17 10 -6 48 14 48 25 0 5 -13 15 -29
23 -22 10 -27 18 -21 28 8 12 10 12 10 1 0 -10 3 -11 14 -2 14 12 28 -11 42
-71 9 -39 22 -35 18 5 -1 17 -3 32 -4 32 -1 0 -3 22 -5 48 -2 43 0 49 21 57
14 6 24 18 24 30 0 24 19 27 22 3z m3084 -43 c8 0 14 -7 14 -15 0 -18 -39 -20
-45 -2 -9 26 -13 66 -7 72 4 4 11 -7 16 -24 5 -17 15 -31 22 -31z m-2929 28
c-3 -8 -6 -5 -6 6 -1 11 2 17 5 13 3 -3 4 -12 1 -19z m4023 18 c0 -3 -4 -8
-10 -11 -5 -3 -10 -1 -10 4 0 6 5 11 10 11 6 0 10 -2 10 -4z m-4520 -41 c0
-19 -4 -35 -10 -35 -11 0 -14 53 -3 63 11 12 13 8 13 -28z m221 19 c11 -4 14
-14 11 -30 -6 -34 -22 -41 -22 -9 0 14 -7 28 -15 31 -8 4 -15 11 -15 16 0 5 6
7 13 4 6 -3 19 -9 28 -12z m618 -34 c16 0 14 -25 -4 -40 -12 -10 -16 -9 -21 6
-3 11 -9 26 -14 35 -12 22 1 34 16 15 6 -9 16 -16 23 -16z m-2064 -14 c-16
-13 -32 -22 -34 -20 -8 7 32 44 48 44 11 0 6 -8 -14 -24z m1942 3 c6 -6 9 -18
6 -26 -3 -8 3 -20 13 -28 13 -10 16 -17 8 -24 -16 -17 -41 9 -48 52 -7 37 1
46 21 26z m-1097 -19 c0 -5 -2 -10 -4 -10 -3 0 -8 5 -11 10 -3 6 -1 10 4 10 6
0 11 -4 11 -10z m260 -12 c-1 -17 -39 -67 -40 -51 0 18 22 63 32 63 4 0 8 -6
8 -12z m105 3 c3 -5 1 -12 -5 -16 -5 -3 -10 1 -10 9 0 18 6 21 15 7z m-355
-23 c0 -25 -18 -40 -47 -42 -16 -2 -35 -6 -41 -10 -8 -5 -12 1 -12 14 0 18 4
21 24 16 20 -5 23 -3 19 14 -5 17 0 20 26 20 18 0 31 -5 31 -12z m105 -18 c-5
-16 -10 -19 -18 -11 -7 7 -6 15 3 26 17 20 24 13 15 -15z m743 1 c-4 -22 -25
-24 -30 -4 -4 13 1 19 14 19 11 0 17 -6 16 -15z m412 -14 c0 -20 -1 -20 -16
-5 -9 9 -13 21 -9 27 10 16 25 3 25 -22z m369 0 c0 -21 -1 -21 -9 -2 -12 28
-12 37 0 30 6 -3 10 -16 9 -28z m-1281 -39 c-5 -24 -18 -51 -29 -61 -10 -10
-19 -22 -19 -27 0 -6 -7 -10 -15 -10 -20 0 -19 13 7 57 12 21 28 50 35 66 21
39 33 25 21 -25z m567 42 c3 -6 -1 -7 -9 -4 -18 7 -21 14 -7 14 6 0 13 -4 16
-10z m-1045 -28 c0 -25 -25 -58 -34 -44 -8 13 10 62 24 62 5 0 10 -8 10 -18z
m1233 -6 c34 -8 35 -24 1 -36 -33 -13 -30 -14 -43 21 -14 40 -14 44 2 32 6 -6
24 -13 40 -17z m-1973 7 c0 -5 -4 -14 -9 -21 -6 -10 -10 -9 -14 7 -3 14 0 21
9 21 8 0 14 -3 14 -7z m1895 -41 c-2 -3 -11 1 -20 8 -12 10 -13 16 -3 27 10
13 13 11 20 -8 5 -12 6 -24 3 -27z m800 38 c3 -5 2 -10 -4 -10 -5 0 -13 5 -16
10 -3 6 -2 10 4 10 5 0 13 -4 16 -10z m-2334 -53 c-5 -4 -20 -5 -34 -2 -26 7
-26 8 -10 29 l17 23 17 -21 c10 -12 14 -25 10 -29z m785 37 c-3 -9 -6 -18 -6
-20 0 -2 -4 -4 -9 -4 -5 0 -7 9 -4 20 3 11 10 20 15 20 6 0 7 -7 4 -16z m-931
-5 c4 -6 13 -8 21 -5 8 3 14 1 14 -4 0 -6 -13 -10 -30 -10 -20 0 -30 5 -30 15
0 17 16 20 25 4z m1545 -7 c0 -11 9 -27 19 -36 11 -10 17 -24 14 -32 -5 -13
-8 -12 -24 2 -11 9 -19 25 -19 35 0 10 -5 21 -10 24 -12 7 -4 25 11 25 5 0 9
-8 9 -18z m-40 -2 c0 -5 -4 -10 -10 -10 -5 0 -10 5 -10 10 0 6 5 10 10 10 6 0
10 -4 10 -10z m130 -11 c0 -15 5 -19 15 -15 17 6 35 -29 35 -70 0 -13 6 -24
13 -25 10 0 10 -2 0 -6 -7 -2 -13 -13 -13 -24 0 -10 -3 -19 -6 -19 -14 0 -33
36 -34 63 0 17 -5 27 -15 27 -8 0 -15 -4 -15 -10 0 -5 -7 -10 -15 -10 -18 0
-18 3 -4 49 7 20 13 42 15 49 6 20 24 14 24 -9z m812 -51 c19 -25 25 -38 16
-38 -13 0 -88 89 -88 105 0 11 37 -23 72 -67z m-2002 52 c0 -5 -4 -10 -10 -10
-5 0 -10 5 -10 10 0 6 5 10 10 10 6 0 10 -4 10 -10z m145 -19 c-3 -6 -11 -8
-17 -5 -6 4 -5 9 3 15 16 10 23 4 14 -10z m1209 -33 c-9 -9 -22 -14 -30 -11
-8 3 -14 -1 -14 -8 0 -9 -3 -10 -11 -2 -12 12 14 46 42 55 22 8 30 -15 13 -34z
m-889 -4 c0 -19 -5 -29 -14 -29 -10 0 -15 10 -14 28 1 39 2 39 16 35 6 -3 12
-18 12 -34z m1023 14 c14 -14 17 -62 3 -54 -12 8 -32 66 -22 66 4 0 12 -5 19
-12z m279 -10 c13 -12 23 -25 23 -30 0 -4 8 -16 18 -26 46 -50 78 -100 68
-109 -3 -3 -12 -1 -20 6 -11 9 -15 9 -19 -1 -4 -10 -7 -11 -18 0 -9 9 -10 12
-1 12 17 0 15 37 -3 44 -8 3 -15 1 -15 -4 0 -6 -4 -10 -10 -10 -5 0 -10 11
-10 24 0 14 -11 37 -25 52 -23 25 -34 64 -18 64 4 0 17 -10 30 -22z m3090 16
c-3 -3 -12 -4 -19 -1 -8 3 -5 6 6 6 11 1 17 -2 13 -5z m-2917 -64 c5 0 10 -9
10 -19 0 -11 5 -23 10 -26 6 -3 10 -11 10 -18 0 -25 -68 60 -74 93 l-7 35 20
-32 c11 -18 25 -33 31 -33z m-2590 46 c0 -3 -4 -8 -10 -11 -5 -3 -10 -1 -10 4
0 6 5 11 10 11 6 0 10 -2 10 -4z m680 -16 c0 -21 -15 -27 -25 -10 -7 12 2 30
16 30 5 0 9 -9 9 -20z m5486 -9 c-5 -7 63 -37 77 -33 8 2 10 -12 1 -21 -8 -7
-66 13 -82 30 -7 7 -18 13 -23 13 -5 0 -9 9 -9 20 0 18 3 19 20 10 11 -6 18
-14 16 -19z m-5396 10 c0 -6 -4 -13 -10 -16 -5 -3 -10 1 -10 9 0 9 5 16 10 16
6 0 10 -4 10 -9z m213 -30 c-3 -13 -11 -17 -24 -14 -24 7 -25 30 -1 36 24 5
31 0 25 -22z m-786 3 c9 -25 -13 -40 -26 -16 -10 19 -6 32 11 32 5 0 11 -7 15
-16z m2137 1 c3 -8 1 -15 -3 -15 -5 0 -11 7 -15 15 -3 8 -1 15 3 15 5 0 11 -7
15 -15z m-2224 -14 c0 -14 -18 -23 -30 -16 -6 4 -8 11 -5 16 8 12 35 12 35 0z
m700 -20 c-6 -13 -7 -21 -1 -21 14 0 25 -40 13 -52 -6 -6 -14 2 -22 22 -11 25
-10 35 0 55 7 14 15 23 17 21 3 -2 0 -14 -7 -25z m1194 -3 c9 -12 16 -31 16
-41 0 -17 -2 -17 -16 -6 -8 7 -22 25 -30 41 -13 25 -13 28 0 28 8 0 22 -10 30
-22z m-1854 2 c0 -5 -4 -10 -10 -10 -5 0 -10 5 -10 10 0 6 5 10 10 10 6 0 10
-4 10 -10z m763 4 c3 -4 -1 -17 -9 -30 -18 -27 -11 -44 17 -44 32 0 22 -27
-11 -28 -16 0 -35 -4 -42 -9 -7 -4 -21 -6 -30 -5 -12 2 -18 -3 -18 -17 0 -12
-7 -21 -15 -21 -9 0 -15 10 -15 26 0 14 4 23 9 19 14 -8 81 34 81 51 0 8 -6
13 -12 12 -7 -2 -14 8 -16 21 -3 18 0 22 12 18 9 -4 16 -2 16 3 0 11 23 14 33
4z m1382 -11 c13 -30 15 -53 5 -53 -6 0 -10 -7 -10 -15 0 -22 -12 -19 -47 14
-18 16 -38 31 -45 34 -9 3 -10 8 -3 15 8 8 18 7 39 -3 37 -19 39 -19 31 5 -8
26 19 28 30 3z m430 -24 c4 -6 4 -13 1 -16 -7 -7 -46 26 -46 39 0 10 36 -8 45
-23z m-2079 -6 c-10 -10 -19 5 -10 18 6 11 8 11 12 0 2 -7 1 -15 -2 -18z
m1501 -30 c15 -37 17 -63 4 -63 -5 0 -14 20 -20 44 -6 25 -15 48 -21 51 -5 3
-10 11 -10 17 0 19 33 -16 47 -49z m-1173 13 c-3 -14 -10 -26 -15 -26 -5 0 -6
7 -4 15 3 8 7 22 10 31 9 27 17 9 9 -20z m106 21 c0 -22 -26 -51 -38 -43 -16
10 -15 43 1 49 22 10 37 7 37 -6z m270 6 c-1 -44 -30 -66 -30 -23 0 10 -6 21
-12 23 -7 3 -1 6 15 6 15 1 27 -2 27 -6z m1644 -19 c4 -11 0 -15 -16 -12 -12
2 -23 9 -26 16 -6 18 35 15 42 -4z m-2404 -3 c0 -13 -29 -35 -37 -28 -7 8 15
37 28 37 5 0 9 -4 9 -9z m-132 -13 c-3 -7 -13 -13 -23 -13 -10 0 -20 6 -22 13
-3 7 5 12 22 12 17 0 25 -5 23 -12z m888 -85 c-2 -10 -11 -20 -21 -22 -13 -2
-16 1 -12 13 9 22 2 20 -22 -5 -15 -16 -18 -26 -11 -40 7 -11 7 -20 0 -24 -5
-3 -10 -21 -10 -40 0 -39 -14 -52 -35 -35 -19 16 -20 70 -1 70 17 0 29 40 16
55 -8 10 -4 40 15 102 7 20 9 19 45 -17 22 -22 37 -46 36 -57z m475 45 c25
-35 24 -50 -3 -46 -19 2 -24 11 -29 46 -5 41 1 67 10 40 2 -7 12 -25 22 -40z
m95 25 c0 -10 7 -19 19 -21 24 -5 54 -40 55 -64 0 -11 8 -18 19 -18 31 0 51
-11 51 -27 0 -9 6 -13 15 -9 10 4 15 -1 15 -14 0 -11 -7 -20 -15 -20 -8 0 -15
-7 -15 -15 0 -8 5 -15 10 -15 6 0 10 -5 10 -11 0 -7 8 -18 18 -25 16 -12 16
-13 -4 -14 -12 0 -25 8 -28 18 -4 9 -14 31 -23 47 l-17 30 -6 -30 -5 -29 -18
27 c-17 26 -17 27 0 27 15 0 13 4 -7 20 -14 10 -25 27 -25 37 0 11 -9 19 -23
21 -12 2 -20 7 -17 11 2 5 -7 19 -20 31 -27 26 -32 46 -12 53 21 9 25 7 23
-10z m333 -35 c1 -5 -5 -8 -12 -8 -14 0 -47 35 -47 51 0 11 59 -31 59 -43z
m-1489 35 c0 -11 -20 -40 -20 -29 0 5 -6 3 -14 -3 -10 -9 -16 -8 -26 4 -10 13
-9 15 8 15 12 0 24 5 27 10 7 12 25 13 25 3z m465 -25 c-13 -66 -15 -69 -43
-66 -22 2 -26 7 -24 27 3 16 0 21 -9 16 -8 -5 -10 -4 -5 3 4 7 13 12 20 12 7
0 21 9 31 20 26 29 38 25 30 -12z m1209 -43 c42 -38 76 -75 76 -81 0 -6 7 -17
15 -24 17 -14 20 -40 6 -40 -6 0 -24 14 -40 32 -29 31 -57 34 -31 3 10 -12 10
-15 -2 -15 -25 0 -108 84 -108 108 0 12 -4 22 -10 22 -14 0 -13 43 2 58 6 6
13 11 14 9 1 -1 37 -33 78 -72z m664 63 c16 -16 15 -28 -3 -28 -8 0 -15 2 -15
4 0 2 -3 11 -6 20 -7 19 7 21 24 4z m-2568 -23 c-7 -9 -15 -13 -17 -11 -7 7 7
26 19 26 6 0 6 -6 -2 -15z m2661 -12 c8 -9 14 -27 14 -41 0 -14 6 -27 13 -29
7 -3 10 1 6 11 -4 11 -1 16 11 16 12 0 16 6 12 20 -5 18 -3 19 23 5 33 -17 63
-56 52 -66 -4 -4 -37 -10 -73 -13 -63 -5 -68 -3 -94 24 -32 34 -29 62 7 53 23
-6 23 -6 4 15 -16 18 -16 22 -4 22 9 0 22 -7 29 -17z m-2271 -2 c0 -6 -5 -13
-10 -16 -15 -9 -43 3 -35 15 8 13 45 13 45 1z m3945 0 c7 -12 -12 -24 -25 -16
-11 7 -4 25 10 25 5 0 11 -4 15 -9z m-2654 -41 c23 -34 28 -38 39 -25 7 8 18
15 24 15 19 -1 108 -98 94 -103 -7 -2 -4 -3 7 -1 18 3 65 -31 65 -47 0 -14
-64 0 -76 16 -6 8 -18 13 -27 10 -9 -4 -27 9 -51 39 -23 27 -49 47 -67 51 -33
7 -34 9 -44 53 -9 43 5 40 36 -8z m329 24 c0 -17 -22 -14 -28 4 -2 7 3 12 12
12 9 0 16 -7 16 -16z m55 -4 c3 -5 1 -10 -4 -10 -6 0 -11 5 -11 10 0 6 2 10 4
10 3 0 8 -4 11 -10z m-1830 -10 c3 -5 1 -10 -4 -10 -6 0 -11 5 -11 10 0 6 2
10 4 10 3 0 8 -4 11 -10z m205 1 c0 -14 -34 -71 -42 -71 -5 0 -8 9 -8 20 0 11
4 20 9 20 5 0 13 9 16 20 6 20 25 28 25 11z m405 -11 c3 -5 1 -10 -4 -10 -6 0
-11 5 -11 10 0 6 2 10 4 10 3 0 8 -4 11 -10z m775 0 c0 -5 -7 -10 -16 -10 -8
0 -12 5 -9 10 3 6 10 10 16 10 5 0 9 -4 9 -10z m-1690 -15 c0 -2 -9 -9 -20
-15 -16 -9 -18 -8 -14 5 5 13 34 22 34 10z m656 -71 c-2 -18 0 -36 6 -42 5 -5
8 -18 5 -28 -4 -18 -4 -18 -12 1 -4 11 -19 44 -32 74 -24 52 -25 53 -37 30
-11 -21 -10 -25 6 -33 20 -10 34 -49 23 -66 -4 -7 -16 -5 -35 7 -30 17 -47 66
-35 103 8 27 54 29 88 5 22 -16 26 -26 23 -51z m776 43 c10 -12 22 -27 28 -34
14 -17 12 -33 -3 -33 -17 0 -109 85 -101 93 12 11 60 -5 76 -26z m1802 -40
c10 -16 15 -31 12 -34 -9 -10 -36 6 -42 24 -3 10 -10 26 -15 35 -5 10 -9 25
-9 34 0 18 17 -1 54 -59z m-3294 48 c-7 -9 -15 -13 -17 -11 -7 7 7 26 19 26 6
0 6 -6 -2 -15z m938 -24 c-5 -9 -21 -18 -34 -19 -23 -2 -24 -1 -9 22 19 29 61
26 43 -3z m-458 5 c0 -17 -27 -46 -42 -46 -7 0 -7 -5 1 -14 11 -13 5 -46 -8
-46 -14 0 -31 25 -31 46 0 15 8 24 24 28 13 3 26 15 29 26 6 23 27 27 27 6z
m517 -8 c-3 -8 -6 -5 -6 6 -1 11 2 17 5 13 3 -3 4 -12 1 -19z m553 12 c0 -5
-2 -10 -4 -10 -3 0 -8 5 -11 10 -3 6 -1 10 4 10 6 0 11 -4 11 -10z m4030 -16
c12 -32 12 -34 0 -34 -16 0 -51 40 -45 50 11 19 35 10 45 -16z m-5485 6 c-3
-5 -10 -10 -16 -10 -5 0 -9 5 -9 10 0 6 7 10 16 10 8 0 12 -4 9 -10z m485 -40
c0 -14 -20 -29 -87 -66 -20 -11 -23 -11 -23 6 0 24 31 90 42 90 4 0 8 -4 8
-10 0 -19 18 -10 24 12 5 22 6 22 20 3 9 -11 15 -27 16 -35z m214 26 c-3 -8
-12 -12 -20 -9 -21 8 -17 23 6 23 13 0 18 -5 14 -14z m167 -13 c-8 -15 -10
-15 -11 -2 0 17 10 32 18 25 2 -3 -1 -13 -7 -23z m4159 17 c20 -6 21 -8 5 -8
-11 0 -29 3 -40 8 -25 11 1 11 35 0z m-4800 -16 c0 -8 -5 -12 -10 -9 -6 4 -8
11 -5 16 9 14 15 11 15 -7z m41 -15 c-11 -12 -24 -19 -28 -15 -5 4 3 16 16 27
31 25 39 17 12 -12z m1469 15 c0 -8 -4 -12 -10 -9 -5 3 -10 10 -10 16 0 5 5 9
10 9 6 0 10 -7 10 -16z m-101 -40 c-9 -11 -15 -11 -25 -3 -17 14 -7 32 12 25
8 -3 14 1 15 12 1 15 2 15 6 -1 3 -10 -1 -25 -8 -33z m-809 26 c0 -5 -5 -10
-11 -10 -5 0 -7 5 -4 10 3 6 8 10 11 10 2 0 4 -4 4 -10z m528 -8 c6 -18 -15
-14 -22 4 -4 10 -1 14 6 12 6 -2 14 -10 16 -16z m-1152 -19 l27 -27 -27 -11
c-15 -7 -32 -18 -36 -26 -5 -7 -13 -10 -17 -5 -4 5 -2 11 5 13 19 7 14 21 -10
25 -24 3 -38 28 -15 28 8 0 20 7 27 15 16 19 14 20 46 -12z m724 18 c0 -5 -7
-14 -15 -21 -12 -10 -15 -10 -15 2 0 8 3 18 7 21 9 10 23 9 23 -2z m-243 -20
c3 -13 11 -17 24 -14 24 7 26 -23 3 -48 -19 -21 -44 -6 -36 23 2 10 -1 18 -7
18 -6 0 -11 9 -11 20 0 25 20 26 27 1z m207 -8 c4 -9 0 -23 -8 -31 -12 -13
-16 -11 -30 17 -16 31 -16 31 8 31 13 0 27 -7 30 -17z m518 -10 c9 -22 12 -24
15 -10 5 18 33 24 33 7 0 -6 12 -22 26 -37 29 -29 28 -30 -15 -43 -26 -7 -35
-5 -51 13 -11 11 -20 29 -20 39 0 10 -6 18 -14 18 -9 0 -12 7 -9 20 7 28 21
25 35 -7z m-1457 -13 c-17 -18 -39 -30 -54 -30 -24 0 -24 0 -5 18 51 48 103
58 59 12z m5340 20 c8 -13 -5 -13 -25 0 -13 8 -13 10 2 10 9 0 20 -4 23 -10z
m-4452 -52 c14 -15 17 -28 11 -64 -3 -25 -13 -51 -21 -57 -36 -30 -53 -52 -53
-70 0 -10 -9 -21 -20 -24 -24 -6 -26 -19 -4 -27 13 -5 16 -18 12 -71 -5 -84
-22 -104 -70 -84 -18 8 -36 13 -40 11 -5 -1 -8 2 -8 8 0 5 -7 7 -15 4 -11 -5
-15 1 -15 20 0 28 17 35 26 11 5 -12 10 -13 20 -4 10 8 11 15 1 30 -8 13 -9
22 -2 27 6 4 15 17 22 28 10 19 9 23 -8 27 -10 3 -19 1 -19 -3 0 -4 -8 -6 -18
-3 -14 3 -23 -5 -35 -30 -10 -19 -17 -40 -17 -46 0 -15 -23 -14 -38 1 -9 9
-12 8 -12 -4 0 -9 5 -18 11 -20 8 -3 4 -19 -10 -47 -11 -24 -23 -58 -27 -75
-3 -17 -14 -42 -25 -56 -18 -23 -20 -24 -33 -8 -7 10 -16 18 -19 18 -13 0 -57
-48 -57 -63 0 -20 -16 -31 -25 -17 -4 6 -11 8 -16 4 -5 -3 -7 -10 -4 -15 4 -5
2 -9 -4 -9 -20 0 -23 22 -5 36 18 15 18 15 -3 11 -13 -3 -26 -1 -29 4 -3 5 2
9 11 9 11 0 15 5 11 15 -3 9 0 15 10 15 12 0 15 6 10 24 -8 32 8 41 36 22 12
-9 28 -16 35 -16 20 0 15 34 -7 48 -23 14 -27 37 -5 28 8 -3 15 -1 15 5 0 7
-10 9 -26 5 -21 -6 -33 1 -73 44 -26 28 -45 53 -40 55 4 3 10 1 14 -5 10 -16
25 -12 19 5 -5 13 -2 13 24 0 16 -9 35 -22 42 -30 17 -20 30 -19 28 3 -3 36 2
52 17 52 17 0 21 26 4 32 -17 6 -19 100 -3 128 l15 25 -6 -27 c-4 -21 -2 -26
9 -22 11 4 17 -5 22 -33 4 -21 17 -51 30 -66 13 -16 24 -35 24 -43 0 -8 5 -14
10 -14 10 0 14 14 11 38 -1 7 4 15 11 17 9 4 14 28 15 73 1 38 9 84 19 107 10
22 18 46 18 52 1 7 6 12 11 12 6 -1 9 -5 7 -10 -3 -13 26 -11 34 2 4 7 14 -1
26 -20 22 -34 38 -40 38 -15 0 9 11 29 24 44 24 29 24 29 45 9 l21 -20 1 33
c0 30 1 31 12 14 7 -11 20 -28 30 -38z m1265 -4 c-13 -12 -38 11 -38 33 l0 26
21 -27 c12 -15 19 -29 17 -32z m112 46 c0 -5 -4 -10 -10 -10 -5 0 -10 5 -10
10 0 6 5 10 10 10 6 0 10 -4 10 -10z m3435 0 c-3 -5 -10 -10 -16 -10 -5 0 -9
5 -9 10 0 6 7 10 16 10 8 0 12 -4 9 -10z m-3978 -17 c3 -7 -3 -9 -16 -6 -12 3
-21 10 -21 15 0 13 32 6 37 -9z m-1112 -10 c-4 -10 -10 -28 -12 -40 -3 -13
-10 -23 -15 -23 -6 0 -7 7 -4 16 3 9 9 27 12 40 3 13 11 24 16 24 6 0 7 -8 3
-17z m-125 -5 c0 -7 -11 -26 -25 -43 -21 -25 -26 -28 -35 -15 -14 21 -12 30 8
37 9 4 21 12 25 20 10 17 27 17 27 1z m507 -20 c-1 -22 -7 -33 -17 -33 -10 0
-16 12 -18 33 -3 26 0 32 16 32 16 0 20 -6 19 -32z m609 17 c18 -15 17 -16
-16 -9 -44 8 -63 24 -29 24 14 0 34 -7 45 -15z m4200 -22 c-7 -7 -26 7 -26 19
0 6 6 6 15 -2 9 -7 13 -15 11 -17z m-4591 -24 c0 -22 -4 -24 -51 -26 -51 -1
-51 -1 -40 22 7 16 21 25 41 28 44 5 50 3 50 -24z m1030 6 c33 -27 28 -30 -27
-15 -20 6 -39 17 -42 25 -9 24 35 17 69 -10z m-1896 -25 c5 0 13 5 16 10 7 12
42 13 49 2 2 -4 0 -14 -5 -22 -8 -12 -12 -12 -16 -2 -10 24 -23 11 -23 -23 0
-23 -5 -35 -14 -35 -23 0 -44 42 -38 80 4 31 6 32 13 12 5 -12 13 -22 18 -22z
m1655 31 c5 -8 51 -21 119 -36 29 -6 32 -12 17 -35 -9 -13 -12 -13 -21 3 -15
25 -32 22 -18 -4 7 -13 17 -19 29 -16 11 3 26 -3 36 -14 17 -18 16 -19 -24
-19 -23 0 -42 4 -42 9 0 5 -9 13 -21 16 -29 9 -99 74 -99 91 0 15 16 19 24 5z
m-1979 -11 c-3 -5 -10 -10 -16 -10 -5 0 -9 5 -9 10 0 6 7 10 16 10 8 0 12 -4
9 -10z m155 -25 c0 -8 -7 -15 -15 -15 -26 0 -18 20 13 29 1 1 2 -6 2 -14z
m3320 -7 c0 -13 -23 -5 -28 10 -2 7 2 10 12 6 9 -3 16 -11 16 -16z m-2916 -14
c11 -29 -4 -82 -25 -87 -15 -4 -17 -2 -10 11 6 11 3 24 -11 43 -11 15 -17 32
-14 38 11 17 53 13 60 -5z m394 -29 c11 -14 27 -25 36 -25 17 0 33 -31 43 -85
4 -16 12 -36 20 -43 7 -8 11 -23 7 -37 -3 -12 -1 -26 5 -29 15 -10 14 -46 -1
-46 -7 0 -24 -3 -37 -7 l-24 -6 7 80 c5 54 4 83 -4 88 -6 4 -13 -6 -16 -24 -7
-32 -31 -42 -39 -16 -3 8 -8 23 -11 33 -11 27 -14 44 -20 95 -7 53 4 60 34 22z
m-698 -6 c0 -6 -4 -7 -10 -4 -5 3 -10 11 -10 16 0 6 5 7 10 4 6 -3 10 -11 10
-16z m147 -29 c-8 -64 -13 -73 -38 -60 -27 15 -24 50 9 82 15 15 29 27 31 27
2 1 1 -22 -2 -49z m731 32 c2 -7 -2 -10 -12 -6 -9 3 -16 11 -16 16 0 13 23 5
28 -10z m-1193 -2 c-3 -5 -11 -10 -16 -10 -6 0 -7 5 -4 10 3 6 11 10 16 10 6
0 7 -4 4 -10z m1146 -17 c13 -16 12 -17 -3 -4 -17 13 -22 21 -14 21 2 0 10 -8
17 -17z m229 3 c0 -20 -13 -27 -30 -15 -13 8 -13 10 0 19 21 14 30 12 30 -4z
m-1010 -27 c8 -12 20 -27 25 -33 18 -21 55 -75 55 -81 0 -3 -9 -1 -20 5 -11 6
-20 17 -20 24 0 22 -41 28 -47 7 -6 -23 -94 -54 -105 -37 -6 8 -11 7 -18 -4
-6 -9 -10 -10 -10 -3 0 6 4 14 9 18 9 5 41 62 41 73 0 2 -7 -1 -15 -8 -18 -15
-30 -7 -21 15 4 12 14 14 45 9 34 -5 40 -3 46 15 8 27 17 27 35 0z m-180 -13
c0 -3 -4 -8 -10 -11 -5 -3 -10 -1 -10 4 0 6 5 11 10 11 6 0 10 -2 10 -4z
m2065 -26 c26 -29 15 -32 -15 -4 -13 13 -20 24 -14 24 6 0 19 -9 29 -20z
m-695 -12 c0 -5 7 -8 15 -8 13 0 41 -48 33 -55 -28 -24 -78 -3 -78 34 0 9 -5
22 -11 28 -8 8 -4 11 15 10 14 -1 26 -5 26 -9z m100 -57 c0 -8 -6 -9 -19 -2
-21 12 -34 38 -25 52 6 11 44 -33 44 -50z m-1494 27 c-3 -13 -6 -26 -6 -30 0
-9 -36 -5 -46 5 -10 9 26 47 44 47 10 0 13 -7 8 -22z m-109 -10 c-3 -8 -6 -5
-6 6 -1 11 2 17 5 13 3 -3 4 -12 1 -19z m2183 0 c0 -13 -23 -5 -28 10 -2 7 2
10 12 6 9 -3 16 -11 16 -16z m2880 -38 c0 -5 -4 -10 -9 -10 -6 0 -13 5 -16 10
-3 6 1 10 9 10 9 0 16 -4 16 -10z m-5390 -20 c0 -5 -5 -10 -11 -10 -5 0 -7 5
-4 10 3 6 8 10 11 10 2 0 4 -4 4 -10z m538 -2 c-5 -15 -58 -24 -58 -9 0 9 20
17 48 20 8 0 12 -5 10 -11z m-448 -29 c0 -11 -27 -12 -34 -1 -2 4 4 9 15 9 10
1 19 -2 19 -8z m188 -9 c-15 -24 -38 -26 -38 -4 0 10 6 14 15 11 8 -4 17 -2
20 3 4 6 8 10 11 10 2 0 -1 -9 -8 -20z m374 -32 c28 -31 34 -59 13 -59 -5 0
-11 12 -13 27 -3 22 -7 25 -28 20 -20 -5 -24 -3 -24 14 0 12 -4 18 -10 15 -5
-3 -10 -1 -10 4 0 23 45 10 72 -21z m-152 7 c0 -2 -10 -10 -22 -16 -21 -11
-22 -11 -9 4 13 16 31 23 31 12z m-40 -39 c0 -3 -4 -8 -10 -11 -5 -3 -10 -1
-10 4 0 6 5 11 10 11 6 0 10 -2 10 -4z m120 -6 c0 -5 -4 -10 -10 -10 -5 0 -10
5 -10 10 0 6 5 10 10 10 6 0 10 -4 10 -10z m2690 0 c0 -5 -4 -10 -10 -10 -5 0
-10 5 -10 10 0 6 5 10 10 10 6 0 10 -4 10 -10z m1917 -4 c4 -3 -6 -6 -20 -6
-15 0 -36 -5 -46 -12 -22 -13 -51 -5 -51 16 0 11 12 14 56 11 30 -1 58 -5 61
-9z m-4785 -28 c-6 -6 -16 -7 -23 -3 -9 6 -7 12 7 22 21 15 34 -1 16 -19z
m675 -5 c2 -6 -5 -14 -16 -18 -12 -3 -21 -11 -21 -16 0 -15 -22 -10 -36 9 -17
22 -18 49 -1 55 16 6 70 -16 74 -30z m2099 22 c13 -10 15 -14 5 -15 -36 0 5
-14 52 -16 67 -4 139 -26 145 -43 4 -11 -2 -12 -24 -7 -16 4 -56 9 -90 11 -65
5 -136 27 -168 54 -17 15 -17 16 10 22 45 10 49 10 70 -6z m1358 -29 c20 -24
36 -49 36 -55 0 -6 4 -11 9 -11 5 0 13 -10 16 -22 4 -13 22 -36 40 -53 18 -16
36 -43 39 -60 l6 -30 -22 26 c-13 14 -38 31 -55 39 -25 9 -33 19 -33 37 0 17
-7 27 -21 30 -14 4 -19 12 -16 24 3 11 0 22 -5 26 -7 3 -8 1 -4 -5 8 -14 4
-15 -18 -6 -13 5 -15 14 -10 40 4 21 2 40 -6 49 -7 9 -8 15 -2 15 5 0 26 -20
46 -44z m-3891 -12 c-4 -11 -9 -12 -19 -4 -7 7 -10 18 -7 26 4 11 9 12 19 4 7
-7 10 -18 7 -26z m-518 16 c-3 -5 -11 -10 -16 -10 -6 0 -7 5 -4 10 3 6 11 10
16 10 6 0 7 -4 4 -10z m365 -20 c0 -5 -9 -10 -21 -10 -11 0 -17 5 -14 10 3 6
13 10 21 10 8 0 14 -4 14 -10z m4715 -16 c14 -15 22 -30 19 -35 -6 -10 -54 10
-54 23 0 4 -7 8 -15 8 -8 0 -15 7 -15 15 0 24 39 17 65 -11z m-4561 -43 c-9
-10 -26 18 -18 30 5 9 9 8 14 -7 4 -10 6 -21 4 -23z m936 19 c0 -5 -2 -10 -4
-10 -3 0 -8 5 -11 10 -3 6 -1 10 4 10 6 0 11 -4 11 -10z m-1300 -28 c-25 -4
-35 2 -26 17 5 7 13 7 27 -2 20 -12 20 -12 -1 -15z m60 18 c0 -5 -4 -10 -10
-10 -5 0 -10 5 -10 10 0 6 5 10 10 10 6 0 10 -4 10 -10z m631 -30 c10 -34 10
-43 -3 -57 -9 -10 -18 -25 -21 -33 -3 -8 -6 18 -6 58 -1 80 12 94 30 32z m126
34 c-3 -3 -12 -4 -19 -1 -8 3 -5 6 6 6 11 1 17 -2 13 -5z m3593 -15 c0 -15 -4
-19 -16 -15 -9 3 -20 6 -25 6 -5 0 -9 7 -9 15 0 9 9 15 25 15 19 0 25 -5 25
-21z m-4510 1 c0 -5 -5 -10 -11 -10 -5 0 -7 5 -4 10 3 6 8 10 11 10 2 0 4 -4
4 -10z m420 -15 c0 -8 -4 -15 -9 -15 -5 0 -11 7 -15 15 -3 9 0 15 9 15 8 0 15
-7 15 -15z m220 -16 c0 -18 -40 -89 -50 -89 -5 0 -12 11 -16 25 -6 23 -1 35
31 71 11 13 35 7 35 -7z m-480 0 c0 -5 -15 -24 -34 -42 -18 -18 -37 -45 -40
-60 -5 -22 -11 -27 -25 -22 -13 4 -21 -1 -26 -17 -21 -62 -23 -65 -24 -40 -1
25 -16 25 -75 -4 -16 -8 -30 -14 -31 -14 0 0 1 16 3 36 4 30 10 38 38 50 19 8
34 20 34 28 0 15 114 76 142 76 9 0 20 5 23 10 8 13 15 13 15 -1z m531 -17
c-6 -12 -11 -31 -11 -45 0 -13 -3 -27 -7 -31 -4 -4 -6 -26 -5 -49 1 -23 -2
-48 -7 -56 -6 -9 -5 -23 1 -37 8 -16 7 -35 -3 -68 -12 -40 -16 -45 -36 -40
-19 5 -23 2 -23 -19 0 -14 5 -29 10 -32 12 -8 13 -25 2 -25 -11 0 -35 51 -27
58 2 3 -4 11 -14 18 -33 23 -35 77 -6 123 14 23 25 47 25 56 0 8 5 15 10 15 6
0 10 -6 10 -14 0 -12 20 -26 36 -26 10 0 3 30 -11 44 -18 17 -12 58 12 77 8 7
21 28 29 47 8 19 17 33 20 29 3 -3 1 -14 -5 -25z m2638 13 c10 -10 -14 -25
-38 -25 -27 0 -51 16 -51 33 0 8 79 0 89 -8z m-3297 -7 c-9 -9 -15 -9 -24 0
-9 9 -7 12 12 12 19 0 21 -3 12 -12z m358 -10 c0 -6 -6 -5 -15 2 -8 7 -15 14
-15 16 0 2 7 1 15 -2 8 -4 15 -11 15 -16z m55 12 c3 -5 1 -10 -4 -10 -6 0 -11
5 -11 10 0 6 2 10 4 10 3 0 8 -4 11 -10z m3905 -36 c5 -13 14 -24 20 -24 14 0
50 -60 50 -83 0 -16 -2 -16 -29 -2 -16 8 -32 23 -35 33 -4 11 -18 24 -31 30
-21 10 -25 19 -25 52 0 38 1 40 20 30 12 -6 25 -22 30 -36z m-3479 3 c38 -53
51 -77 41 -77 -20 0 -61 45 -68 73 -7 33 5 35 27 4z m-382 -17 c-1 -14 -119
-133 -126 -127 -4 4 -7 30 -8 57 -1 39 2 50 14 50 9 0 29 11 45 23 24 20 33
22 52 13 13 -6 24 -13 23 -16z m441 15 c7 -9 8 -15 2 -15 -5 0 -12 7 -16 15
-3 8 -4 15 -2 15 2 0 9 -7 16 -15z m2705 -37 c7 -8 0 -9 -24 -4 -36 6 -61 22
-61 37 0 11 70 -17 85 -33z m912 -14 c-9 -10 -38 16 -31 28 4 6 13 4 22 -6 9
-8 13 -19 9 -22z m-3063 -1 c5 -11 2 -13 -10 -9 -8 3 -18 6 -20 6 -2 0 -4 7
-4 15 0 18 26 9 34 -12z m3116 7 c0 -5 -7 -7 -15 -4 -8 4 -12 10 -9 15 6 11
24 2 24 -11z m-4020 -37 c0 -7 -4 -13 -9 -13 -10 0 -21 24 -21 48 0 13 3 12
15 -4 8 -10 15 -25 15 -31z m-97 -25 c-15 -29 -28 -62 -28 -73 0 -11 -8 -21
-18 -23 -15 -3 -17 1 -11 22 5 22 3 25 -10 20 -9 -4 -15 -14 -12 -23 2 -9 7
-29 10 -46 l6 -30 -21 28 c-20 26 -22 27 -35 10 -17 -23 -17 -33 0 -33 7 0 18
-17 23 -37 11 -44 5 -133 -8 -133 -11 0 -12 16 -9 87 2 47 0 51 -18 46 -12 -3
-28 -14 -38 -24 -16 -18 -16 -19 17 -19 l34 0 -36 -35 c-24 -24 -41 -34 -52
-29 -18 7 -23 29 -8 38 4 3 6 28 3 56 -3 34 -1 50 7 50 6 0 21 15 32 34 14 25
25 33 39 29 14 -4 21 1 26 21 3 14 11 26 18 26 6 0 34 22 61 50 27 27 50 48
53 46 2 -2 -9 -28 -25 -58z m240 5 c5 -29 -10 -73 -26 -73 -5 0 -7 10 -3 23 3
12 6 37 6 55 0 38 15 35 23 -5z m72 28 c3 -5 1 -12 -5 -16 -5 -3 -10 1 -10 9
0 18 6 21 15 7z m-255 -27 c0 -10 6 -14 15 -11 11 5 12 1 5 -18 -20 -53 -61
-105 -83 -105 -8 0 -3 28 13 65 4 11 14 35 22 53 14 34 28 42 28 16z m988 -2
c6 -18 -15 -14 -22 4 -4 10 -1 14 6 12 6 -2 14 -10 16 -16z m-1636 -14 c-12
-41 -26 -55 -61 -62 l-35 -6 23 24 c21 23 22 24 4 29 -14 3 -10 7 17 20 49 23
60 21 52 -5z m4096 10 c19 -19 14 -29 -8 -16 -20 13 -27 28 -12 28 4 0 13 -5
20 -12z m-3208 -39 c0 -24 -4 -38 -10 -34 -5 3 -10 22 -10 41 0 19 5 34 10 34
6 0 10 -18 10 -41z m2788 21 c65 -32 55 -48 -13 -20 -11 5 -28 11 -38 14 -10
3 -15 10 -12 16 9 14 15 13 63 -10z m-274 -35 c28 -8 60 -22 73 -30 25 -17 53
-20 53 -6 0 5 -10 13 -22 17 -23 7 -23 7 4 15 29 8 114 -5 133 -21 7 -6 20 -7
29 -4 9 4 24 0 34 -9 9 -8 29 -19 45 -22 44 -11 43 -26 -2 -19 -30 5 -41 3
-41 -6 0 -19 31 -39 61 -40 15 0 29 -6 32 -14 4 -10 0 -12 -16 -8 -19 5 -20 3
-10 -10 18 -21 4 -30 -21 -13 -11 8 -32 15 -46 15 -14 0 -30 4 -35 9 -6 5 -35
16 -65 26 -61 20 -270 112 -284 126 -15 14 22 11 78 -6z m-3324 -5 c0 -5 -5
-10 -11 -10 -5 0 -7 5 -4 10 3 6 8 10 11 10 2 0 4 -4 4 -10z m370 0 c0 -5 -5
-10 -11 -10 -5 0 -7 5 -4 10 3 6 8 10 11 10 2 0 4 -4 4 -10z m477 -108 c0 -46
-4 -85 -8 -87 -10 -7 -17 33 -13 75 1 19 3 55 4 80 0 31 3 40 9 30 5 -8 9 -52
8 -98z m-907 89 c0 -5 -7 -14 -15 -21 -12 -10 -15 -10 -15 2 0 8 3 18 7 21 9
10 23 9 23 -2z m170 1 c0 -5 -7 -17 -15 -28 -14 -19 -14 -19 -15 2 0 11 3 24
7 27 9 10 23 9 23 -1z m204 -17 c-6 -16 -24 -21 -24 -7 0 11 11 22 21 22 5 0
6 -7 3 -15z m-444 -15 c0 -14 -50 -64 -57 -57 -3 3 5 20 17 36 21 31 40 40 40
21z m890 -22 c0 -23 -3 -29 -9 -19 -8 12 -4 51 5 51 2 0 4 -15 4 -32z m3608 9
c2 -10 -3 -17 -12 -17 -10 0 -16 9 -16 21 0 24 23 21 28 -4z m-4373 3 c-3 -5
-11 -10 -16 -10 -6 0 -7 5 -4 10 3 6 11 10 16 10 6 0 7 -4 4 -10z m207 -42
c-7 -7 -12 -8 -12 -2 0 14 12 26 19 19 2 -3 -1 -11 -7 -17z m3886 -1 c5 -24
-15 -21 -28 4 -10 18 -9 20 7 17 10 -2 19 -11 21 -21z m-4348 -12 c0 -8 -6
-15 -14 -15 -17 0 -28 14 -19 24 12 12 33 6 33 -9z m167 -32 c-3 -10 -5 -2 -5
17 0 19 2 27 5 18 2 -10 2 -26 0 -35z m3888 24 c11 -9 15 -19 10 -27 -6 -10
-10 -9 -17 4 -5 9 -16 16 -24 16 -8 0 -12 5 -9 10 8 13 18 13 40 -3z m-3055
-13 c0 -8 -4 -12 -10 -9 -5 3 -10 10 -10 16 0 5 5 9 10 9 6 0 10 -7 10 -16z
m-760 -39 l-8 -40 -1 36 c0 20 2 39 6 42 11 11 11 4 3 -38z m4235 35 c3 -5 2
-10 -4 -10 -5 0 -13 5 -16 10 -3 6 -2 10 4 10 5 0 13 -4 16 -10z m-4483 -22
c-7 -7 -12 -8 -12 -2 0 14 12 26 19 19 2 -3 -1 -11 -7 -17z m858 -39 c0 -18
-4 -28 -10 -24 -5 3 -10 20 -10 36 0 18 4 28 10 24 6 -3 10 -20 10 -36z m-671
-41 c0 -35 -2 -39 -9 -21 -8 19 -3 63 6 63 2 0 4 -19 3 -42z m1656 23 c-3 -6
-11 -11 -17 -11 -6 0 -6 6 2 15 14 17 26 13 15 -4z m-1355 -21 c-24 -16 -31
-11 -19 11 8 16 14 18 22 10 9 -9 8 -14 -3 -21z m312 -2 c-15 -15 -26 -4 -18
18 5 13 9 15 18 6 9 -9 9 -15 0 -24z m3355 26 c-3 -3 -12 -4 -19 -1 -8 3 -5 6
6 6 11 1 17 -2 13 -5z m-4097 -24 c0 -5 -4 -10 -10 -10 -5 0 -10 5 -10 10 0 6
5 10 10 10 6 0 10 -4 10 -10z m580 -34 c-13 -14 -29 2 -23 24 5 19 6 19 19 3
7 -10 9 -22 4 -27z m237 -8 c-3 -7 -5 -2 -5 12 0 14 2 19 5 13 2 -7 2 -19 0
-25z m3273 22 c0 -5 -2 -10 -4 -10 -3 0 -8 5 -11 10 -3 6 -1 10 4 10 6 0 11
-4 11 -10z m-3204 -28 c-18 -16 -18 -16 -6 6 6 13 14 21 18 18 3 -4 -2 -14
-12 -24z m-246 -2 c0 -5 -9 -10 -20 -10 -11 0 -20 5 -20 10 0 6 9 10 20 10 11
0 20 -4 20 -10z m124 -11 c-6 -11 -24 -2 -24 11 0 5 7 7 15 4 8 -4 12 -10 9
-15z m1096 11 c0 -5 -4 -10 -10 -10 -5 0 -10 5 -10 10 0 6 5 10 10 10 6 0 10
-4 10 -10z"/>
<path d="M3435 5200 c-3 -5 3 -10 14 -10 11 0 23 5 26 10 3 6 -3 10 -14 10
-11 0 -23 -4 -26 -10z"/>
<path d="M3282 5140 c0 -14 2 -19 5 -12 2 6 2 18 0 25 -3 6 -5 1 -5 -13z"/>
<path d="M6102 4378 c3 -7 13 -15 24 -17 16 -3 17 -1 5 13 -16 19 -34 21 -29
4z"/>
<path d="M2533 4129 c-37 -33 -46 -63 -11 -33 43 37 50 44 46 54 -2 5 -18 -4
-35 -21z"/>
<path d="M2554 4102 c-19 -12 -34 -50 -28 -67 4 -10 1 -21 -7 -26 -8 -5 -9 -9
-3 -9 11 0 34 23 49 49 6 11 4 13 -8 8 -22 -8 -22 2 -1 18 18 13 16 39 -2 27z"/>
<path d="M1420 3352 c0 -6 33 -31 43 -32 4 0 7 8 7 19 0 13 -7 19 -25 19 -14
0 -25 -3 -25 -6z"/>
<path d="M6436 2291 c-3 -5 1 -11 9 -15 15 -6 29 7 18 18 -9 9 -21 8 -27 -3z"/>
<path d="M6295 2000 c-3 -5 1 -10 10 -10 9 0 13 5 10 10 -3 6 -8 10 -10 10 -2
0 -7 -4 -10 -10z"/>
<path d="M6068 1672 c-45 -5 -36 -34 9 -30 20 2 38 8 40 14 5 15 -14 21 -49
16z"/>
<path d="M6140 1625 c0 -13 59 -37 69 -29 2 2 -4 13 -14 24 -21 23 -55 27 -55
5z"/>
<path d="M3190 1500 c0 -5 5 -10 11 -10 5 0 7 5 4 10 -3 6 -8 10 -11 10 -2 0
-4 -4 -4 -10z"/>
<path d="M3385 1500 c3 -5 8 -10 11 -10 2 0 4 5 4 10 0 6 -5 10 -11 10 -5 0
-7 -4 -4 -10z"/>
<path d="M3400 1471 c0 -10 92 -71 107 -71 6 0 29 -18 52 -40 24 -23 51 -40
64 -40 22 1 22 1 2 16 -11 8 -38 30 -60 49 -89 75 -165 115 -165 86z"/>
<path d="M3935 1299 c-17 -17 -17 -21 -5 -29 8 -5 23 -10 32 -10 9 0 20 -5 23
-10 4 -6 21 -10 38 -9 18 1 44 -2 60 -6 27 -7 34 0 19 21 -10 15 -71 44 -93
44 -10 0 -21 5 -24 10 -9 15 -28 11 -50 -11z"/>
<path d="M5572 1309 c2 -8 20 -15 39 -17 40 -4 30 13 -15 24 -22 5 -28 4 -24
-7z"/>
<path d="M4151 1283 c8 -10 19 -21 24 -25 13 -10 55 -10 55 0 -1 8 -65 42 -82
42 -6 0 -5 -7 3 -17z"/>
<path d="M4780 1211 c0 -11 5 -23 10 -26 6 -4 8 -10 5 -15 -12 -19 8 -41 36
-38 19 2 36 -5 54 -22 20 -19 28 -21 34 -11 5 7 19 11 32 9 19 -2 23 -8 21
-30 -2 -19 4 -30 18 -38 28 -15 49 -1 25 17 -17 12 -17 13 9 13 18 0 25 -4 20
-12 -4 -6 -3 -8 3 -5 5 3 39 -3 74 -13 35 -11 71 -20 79 -20 32 0 -16 28 -90
53 -41 14 -104 42 -140 62 -176 101 -190 107 -190 76z"/>
<path d="M5150 1200 c0 -5 16 -10 36 -10 21 0 33 4 29 10 -3 6 -19 10 -36 10
-16 0 -29 -4 -29 -10z"/>
<path d="M4170 1181 c0 -5 5 -13 10 -16 6 -3 10 -2 10 4 0 5 -4 13 -10 16 -5
3 -10 2 -10 -4z"/>
<path d="M5498 1163 c7 -3 16 -2 19 1 4 3 -2 6 -13 5 -11 0 -14 -3 -6 -6z"/>
<path d="M3285 1150 c3 -5 13 -10 21 -10 8 0 14 5 14 10 0 6 -9 10 -21 10 -11
0 -17 -4 -14 -10z"/>
<path d="M3370 1150 c-8 -5 -28 -12 -44 -15 -38 -8 -26 -17 26 -21 58 -3 131
-24 144 -40 13 -16 33 -18 54 -4 13 9 13 11 0 20 -8 5 -23 7 -32 4 -13 -4 -18
0 -18 14 0 21 -42 39 -48 22 -5 -13 -32 -13 -32 0 0 6 5 10 10 10 6 0 10 4 10
8 0 11 -52 13 -70 2z"/>
<path d="M3510 1151 c0 -20 13 -41 21 -35 14 8 11 31 -6 38 -8 3 -15 1 -15 -3z"/>
<path d="M4230 1150 c0 -5 5 -9 12 -7 6 1 30 -26 52 -60 23 -35 47 -63 55 -63
11 0 11 3 1 15 -7 9 -10 18 -7 22 4 3 37 -19 74 -49 103 -84 188 -121 126 -55
-16 17 -33 40 -37 51 -3 10 -12 16 -20 13 -8 -3 -16 -2 -18 3 -2 4 -47 38
-101 74 -91 61 -137 80 -137 56z"/>
<path d="M5046 1132 c-3 -6 1 -15 8 -21 8 -7 17 -8 20 -3 3 6 -1 15 -8 21 -8
7 -17 8 -20 3z"/>
<path d="M4670 1091 c0 -5 14 -14 30 -20 41 -14 44 -14 48 -2 2 6 -6 11 -18
11 -12 0 -30 5 -41 10 -11 6 -19 7 -19 1z"/>
<path d="M4092 1081 c2 -7 7 -12 11 -12 12 1 9 15 -3 20 -7 2 -11 -2 -8 -8z"/>
<path d="M3055 1057 c13 -21 54 -47 72 -47 12 0 -33 42 -60 57 l-28 14 16 -24z"/>
<path d="M4056 1041 c5 -5 20 -12 34 -15 l25 -7 -25 15 c-28 17 -50 21 -34 7z"/>
<path d="M3767 1026 c-3 -8 5 -27 19 -41 32 -34 25 -58 -13 -49 -16 4 -31 12
-35 18 -4 6 -8 -1 -8 -16 0 -16 4 -28 8 -28 9 0 77 -63 83 -76 9 -19 79 -77
79 -65 0 7 -16 27 -35 44 -34 30 -46 57 -25 57 6 0 22 -12 35 -26 14 -15 25
-22 25 -15 0 23 26 10 79 -40 29 -27 56 -48 58 -45 17 16 -66 106 -99 106 -16
1 -98 75 -98 89 0 13 -53 100 -61 101 -4 0 -9 -6 -12 -14z"/>
<path d="M4205 1028 c24 -14 35 -29 29 -40 -3 -4 3 -22 13 -40 13 -26 18 -29
21 -15 2 10 -2 24 -8 32 -7 8 -9 22 -6 31 9 23 -12 44 -43 44 -24 -1 -25 -1
-6 -12z"/>
<path d="M4607 1033 c-4 -4 7 -22 25 -40 l33 -34 -40 7 c-22 3 -47 11 -55 17
-13 10 -13 10 -2 -5 8 -9 37 -24 65 -34 29 -9 60 -23 69 -31 9 -8 21 -13 26
-10 8 6 66 -11 90 -26 6 -5 16 -5 22 -2 5 3 28 -3 51 -15 24 -11 45 -18 47
-15 10 9 -20 34 -49 40 -17 4 -49 24 -71 46 -23 21 -47 39 -55 39 -12 0 -15 5
-17 39 -2 23 -26 25 -26 2 0 -26 -23 -27 -47 -2 -21 21 -56 34 -66 24z"/>
<path d="M5230 1010 c0 -5 7 -10 16 -10 8 0 12 5 9 10 -3 6 -10 10 -16 10 -5
0 -9 -4 -9 -10z"/>
<path d="M5056 991 c-7 -11 17 -21 52 -21 20 1 23 3 12 9 -28 16 -58 22 -64
12z"/>
<path d="M4080 966 c0 -11 30 -39 36 -34 2 3 -5 13 -16 23 -11 10 -20 15 -20
11z"/>
<path d="M4355 960 c3 -5 13 -10 21 -10 8 0 12 5 9 10 -3 6 -13 10 -21 10 -8
0 -12 -4 -9 -10z"/>
<path d="M5360 953 c0 -10 49 -33 67 -33 11 0 11 5 3 20 -7 13 -21 20 -40 20
-17 0 -30 -3 -30 -7z"/>
<path d="M4040 946 c0 -2 8 -10 18 -17 15 -13 16 -12 3 4 -13 16 -21 21 -21
13z"/>
<path d="M5461 931 c-10 -7 -8 -12 10 -25 27 -19 52 -21 47 -4 -7 19 -42 38
-57 29z"/>
<path d="M5035 918 c23 -15 115 -21 115 -7 0 5 -12 9 -27 9 -16 0 -46 3 -68 6
-35 5 -38 4 -20 -8z"/>
<path d="M4098 896 c11 -11 34 -36 51 -54 17 -19 35 -32 41 -30 6 2 3 12 -7
23 -10 11 -26 32 -35 46 -9 15 -29 29 -43 31 l-26 5 19 -21z"/>
<path d="M3395 900 c3 -5 11 -10 16 -10 6 0 7 5 4 10 -3 6 -11 10 -16 10 -6 0
-7 -4 -4 -10z"/>
<path d="M4530 902 c0 -4 18 -27 40 -51 27 -29 45 -41 56 -37 8 3 23 6 32 6 9
1 3 7 -14 14 -17 8 -47 28 -66 45 -36 31 -48 37 -48 23z"/>
<path d="M5170 900 c20 -13 33 -13 25 0 -3 6 -14 10 -23 10 -15 0 -15 -2 -2
-10z"/>
<path d="M5350 880 c0 -5 10 -10 23 -10 18 0 19 2 7 10 -19 13 -30 13 -30 0z"/>
<path d="M5200 870 c0 -5 5 -10 11 -10 5 0 7 5 4 10 -3 6 -8 10 -11 10 -2 0
-4 -4 -4 -10z"/>
<path d="M4262 829 c1 -13 8 -23 13 -21 15 3 12 35 -3 40 -9 3 -13 -3 -10 -19z"/>
<path d="M3485 770 c3 -5 15 -10 26 -10 11 0 17 5 14 10 -3 6 -15 10 -26 10
-11 0 -17 -4 -14 -10z"/>
<path d="M3955 770 c3 -5 8 -10 11 -10 2 0 4 5 4 10 0 6 -5 10 -11 10 -5 0 -7
-4 -4 -10z"/>
<path d="M4080 771 c0 -6 7 -11 15 -11 8 0 15 -3 15 -8 0 -4 17 -12 37 -19 43
-13 58 -2 42 30 -8 14 -13 16 -25 6 -13 -11 -29 -10 -66 6 -11 4 -18 3 -18 -4z"/>
<path d="M4970 770 c-12 -8 -12 -10 3 -10 14 0 17 -5 12 -20 -5 -14 -2 -20 9
-20 19 0 21 33 3 48 -8 7 -18 7 -27 2z"/>
<path d="M4370 755 c0 -23 24 -45 50 -45 39 0 38 12 -2 30 -18 7 -36 15 -40
18 -5 2 -8 1 -8 -3z"/>
<path d="M3930 736 c0 -2 16 -34 35 -73 31 -63 85 -130 85 -107 0 18 -39 86
-60 106 -11 10 -20 27 -20 36 0 19 -18 42 -32 42 -4 0 -8 -2 -8 -4z"/>
<path d="M4063 733 c-7 -3 -13 -11 -13 -18 0 -16 50 -58 59 -49 3 3 -2 11 -12
19 -10 7 -15 19 -11 28 6 17 -5 27 -23 20z"/>
<path d="M4198 721 c-19 -19 -24 -76 -8 -86 7 -4 40 80 40 102 0 8 -17 0 -32
-16z"/>
<path d="M3985 700 c3 -5 8 -10 11 -10 2 0 4 5 4 10 0 6 -5 10 -11 10 -5 0 -7
-4 -4 -10z"/>
<path d="M4120 700 c0 -5 5 -10 10 -10 6 0 10 5 10 10 0 6 -4 10 -10 10 -5 0
-10 -4 -10 -10z"/>
<path d="M4438 694 c-11 -10 3 -34 19 -34 8 0 13 7 11 17 -3 18 -20 27 -30 17z"/>
<path d="M5080 690 c0 -5 5 -10 11 -10 5 0 7 5 4 10 -3 6 -8 10 -11 10 -2 0
-4 -4 -4 -10z"/>
<path d="M4486 682 c29 -25 86 -64 89 -61 2 2 1 16 -2 30 -4 21 -9 25 -28 22
-12 -3 -26 0 -29 6 -4 6 -15 11 -24 11 -9 0 -12 -3 -6 -8z"/>
<path d="M4220 636 c0 -9 7 -19 15 -23 25 -9 27 2 5 22 -18 17 -20 17 -20 1z"/>
<path d="M4055 530 c3 -5 11 -10 16 -10 6 0 7 5 4 10 -3 6 -11 10 -16 10 -6 0
-7 -4 -4 -10z"/>
<path d="M4120 531 c0 -6 5 -13 10 -16 6 -3 10 1 10 9 0 9 -4 16 -10 16 -5 0
-10 -4 -10 -9z"/>
<path d="M4080 486 c0 -9 5 -16 10 -16 6 0 10 4 10 9 0 6 -4 13 -10 16 -5 3
-10 -1 -10 -9z"/>
<path d="M1610 1604 c0 -8 5 -12 10 -9 6 3 10 10 10 16 0 5 -4 9 -10 9 -5 0
-10 -7 -10 -16z"/>
<path d="M1658 1593 c-22 -6 -24 -46 -3 -63 8 -6 14 -15 13 -18 -3 -15 15 -62
23 -62 12 0 11 27 -1 49 -5 10 -11 37 -12 60 -2 22 -3 40 -3 40 0 -1 -8 -3
-17 -6z"/>
<path d="M1470 1555 c0 -8 7 -15 15 -15 8 0 15 7 15 15 0 8 -7 15 -15 15 -8 0
-15 -7 -15 -15z"/>
<path d="M1517 1324 c-4 -4 -7 -14 -7 -23 0 -11 3 -12 11 -4 6 6 10 16 7 23
-2 6 -7 8 -11 4z"/>
<path d="M1591 1236 c-8 -10 -9 -16 -1 -21 5 -3 13 1 16 10 9 22 -1 29 -15 11z"/>
<path d="M1690 1238 c0 -16 47 -56 53 -47 2 2 -10 17 -25 34 -21 23 -28 26
-28 13z"/>
<path d="M1750 1140 c0 -5 5 -10 11 -10 5 0 7 5 4 10 -3 6 -8 10 -11 10 -2 0
-4 -4 -4 -10z"/>
<path d="M1766 1075 c4 -8 7 -15 9 -15 1 0 8 7 15 15 10 13 9 15 -8 15 -15 0
-20 -5 -16 -15z"/>
<path d="M2072 1251 c4 -13 18 -16 19 -4 0 4 -5 9 -11 12 -7 2 -11 -2 -8 -8z"/>
<path d="M3310 1270 c0 -5 7 -10 16 -10 8 0 12 5 9 10 -3 6 -10 10 -16 10 -5
0 -9 -4 -9 -10z"/>
<path d="M2350 1215 c7 -8 17 -15 22 -15 6 0 5 7 -2 15 -7 8 -17 15 -22 15 -6
0 -5 -7 2 -15z"/>
<path d="M1190 1031 c0 -6 5 -13 10 -16 6 -3 10 1 10 9 0 9 -4 16 -10 16 -5 0
-10 -4 -10 -9z"/>
<path d="M1195 955 c-12 -10 -30 -13 -52 -9 -18 3 -33 4 -33 0 0 -12 46 -30
73 -28 15 1 37 -3 48 -9 15 -8 24 -8 32 0 7 7 5 12 -6 16 -46 14 -52 17 -39
22 13 5 17 23 5 23 -5 0 -17 -7 -28 -15z"/>
<path d="M1014 736 c-3 -8 -16 -17 -30 -20 -13 -4 -24 -11 -24 -16 0 -5 7 -7
15 -4 10 4 15 0 15 -15 0 -12 -4 -21 -10 -21 -5 0 -10 -4 -10 -10 0 -15 26
-12 40 5 10 12 10 19 2 27 -16 16 -15 28 2 28 7 0 16 9 19 20 6 23 -11 28 -19
6z"/>
<path d="M970 295 c0 -6 5 -16 11 -22 8 -8 5 -15 -11 -26 -30 -21 -18 -39 15
-24 14 7 25 17 25 22 0 14 -39 63 -40 50z"/>
<path d="M3870 271 c0 -7 58 -31 74 -31 4 0 3 8 -3 17 -9 17 -71 29 -71 14z"/>
<path d="M35 1930 c-3 -5 -2 -10 4 -10 5 0 13 5 16 10 3 6 2 10 -4 10 -5 0
-13 -4 -16 -10z"/>
<path d="M2206 946 c7 -19 38 -22 32 -3 -3 6 -12 13 -21 15 -12 2 -15 -1 -11
-12z"/>
<path d="M2150 942 c0 -14 11 -21 26 -15 21 8 17 23 -6 23 -11 0 -20 -4 -20
-8z"/>
<path d="M2230 796 c0 -3 11 -29 24 -56 23 -49 24 -50 4 -50 -11 0 -18 -5 -15
-12 2 -7 12 -13 23 -13 14 0 20 -8 22 -30 4 -33 22 -60 22 -32 0 20 16 22 34
5 98 -94 250 -207 263 -195 1 2 -16 19 -39 38 -86 71 -93 77 -87 83 3 3 20 -1
37 -10 36 -17 66 -24 137 -29 116 -9 161 -17 174 -30 23 -23 6 -29 -30 -11
-18 9 -33 16 -35 16 -7 0 9 -35 20 -45 22 -20 66 -95 66 -114 0 -10 6 -24 14
-30 8 -7 19 -31 25 -54 23 -98 30 -118 51 -151 12 -20 26 -36 31 -36 13 0 12
8 -15 64 -48 101 -43 158 5 60 28 -54 49 -75 49 -48 0 13 19 -2 61 -49 l61
-67 61 0 c44 0 58 3 47 10 -12 8 -11 10 7 10 12 0 25 -4 28 -10 3 -6 49 -10
101 -10 l95 0 -16 29 c-8 16 -25 33 -37 37 -13 3 -41 20 -63 36 -42 31 -66 19
-26 -13 13 -11 19 -23 15 -33 -3 -9 -1 -23 6 -31 22 -26 -9 -18 -94 25 -43 22
-87 40 -97 40 -24 0 -140 140 -139 167 1 4 11 -4 23 -18 12 -14 54 -47 92 -72
39 -25 80 -54 92 -65 27 -25 83 -39 83 -22 0 7 -6 10 -14 7 -8 -3 -20 2 -28
11 -12 15 -11 16 5 3 15 -12 17 -11 17 8 0 13 -4 20 -11 15 -6 -3 -23 5 -37
19 -15 14 -41 33 -58 43 -101 61 -297 244 -288 269 3 8 -4 20 -15 27 -12 7
-21 19 -21 26 0 16 -60 42 -97 42 -37 0 -128 43 -179 85 -23 19 -65 64 -94
100 -30 35 -56 63 -58 60 -3 -2 1 -11 7 -19 7 -8 10 -19 7 -24 -3 -5 9 -25 25
-45 17 -20 28 -37 24 -37 -4 0 15 -16 42 -36 26 -20 55 -43 63 -51 8 -8 24
-21 35 -29 19 -14 19 -15 -10 -10 -59 9 -68 13 -87 35 -10 13 -18 32 -18 43 0
11 -5 18 -12 15 -8 -2 -12 -17 -10 -36 2 -34 -4 -37 -57 -21 -37 10 -101 65
-101 86 0 7 -4 14 -10 16 -5 2 -22 28 -37 58 -15 30 -36 56 -45 58 -10 2 -18
1 -18 -2z m487 -272 c-3 -3 -12 -4 -19 -1 -8 3 -5 6 6 6 11 1 17 -2 13 -5z
m198 -168 c17 -19 40 -51 50 -73 9 -21 27 -48 38 -60 11 -13 17 -26 14 -30 -4
-3 -24 13 -44 37 -21 24 -53 59 -70 77 -18 19 -33 38 -33 43 0 4 -3 15 -6 24
-11 28 17 18 51 -18z"/>
<path d="M1700 774 c0 -8 5 -12 10 -9 6 3 10 10 10 16 0 5 -4 9 -10 9 -5 0
-10 -7 -10 -16z"/>
<path d="M2420 660 c0 -5 5 -10 11 -10 7 0 17 -7 24 -17 7 -9 17 -13 23 -9 19
11 14 26 -7 26 -11 0 -23 5 -26 10 -3 6 -10 10 -16 10 -5 0 -9 -4 -9 -10z"/>
<path d="M1596 633 c-4 -9 -3 -20 2 -25 6 -6 12 -1 15 11 6 25 -8 38 -17 14z"/>
<path d="M2334 545 c11 -8 22 -12 25 -9 6 6 -19 24 -34 24 -5 -1 -1 -7 9 -15z"/>
<path d="M1488 515 c-4 -20 -3 -23 8 -14 16 13 19 39 5 39 -5 0 -11 -11 -13
-25z"/>
<path d="M2905 503 c24 -13 37 -14 75 -4 25 7 54 9 63 5 9 -3 17 -2 17 4 0 6
-38 10 -92 10 -90 0 -92 0 -63 -15z"/>
<path d="M1705 460 c3 -5 11 -10 16 -10 6 0 7 5 4 10 -3 6 -11 10 -16 10 -6 0
-7 -4 -4 -10z"/>
<path d="M2160 435 c0 -8 4 -15 10 -15 5 0 7 7 4 15 -4 8 -8 15 -10 15 -2 0
-4 -7 -4 -15z"/>
<path d="M3260 428 c0 -8 3 -18 8 -22 4 -4 7 -13 7 -18 0 -6 15 -16 32 -22 19
-6 70 -49 122 -103 49 -50 101 -99 115 -108 15 -10 43 -45 62 -79 42 -71 48
-76 94 -76 l35 0 -30 19 c-28 17 -74 61 -64 61 3 0 42 -18 87 -40 75 -37 87
-40 167 -40 47 0 85 4 85 8 0 13 -47 32 -77 32 -48 0 -169 46 -237 90 -22 14
-62 37 -89 52 -28 15 -64 41 -82 58 -17 16 -34 30 -38 30 -3 0 -27 20 -53 45
-26 25 -59 52 -75 60 -15 8 -37 27 -48 41 -13 17 -21 21 -21 12z"/>
<path d="M2420 402 c0 -7 7 -29 15 -49 9 -20 13 -44 10 -55 -5 -12 -2 -16 7
-13 9 4 18 -9 27 -40 7 -25 26 -61 42 -81 16 -20 29 -41 29 -46 0 -5 25 -34
55 -64 51 -49 60 -54 100 -54 50 0 51 11 8 63 -13 16 -23 34 -23 40 0 7 -10
23 -21 37 l-21 25 7 -25 c11 -46 14 -80 7 -80 -12 0 -87 92 -114 140 -14 25
-42 77 -63 115 -40 75 -65 108 -65 87z"/>
<path d="M3130 400 c0 -5 5 -10 10 -10 6 0 10 5 10 10 0 6 -4 10 -10 10 -5 0
-10 -4 -10 -10z"/>
<path d="M1990 340 c6 -11 23 -23 38 -26 15 -4 38 -18 51 -31 25 -24 55 -31
49 -11 -5 15 -57 46 -79 47 -9 1 -24 10 -34 21 -23 26 -39 26 -25 0z"/>
<path d="M1240 344 c0 -5 7 -19 15 -30 8 -10 15 -14 15 -8 0 5 -7 19 -15 30
-8 10 -15 14 -15 8z"/>
<path d="M2285 325 c15 -14 30 -23 33 -20 8 8 -17 33 -40 39 -19 4 -18 2 7
-19z"/>
<path d="M2750 340 c20 -13 33 -13 25 0 -3 6 -14 10 -23 10 -15 0 -15 -2 -2
-10z"/>
<path d="M1422 328 c5 -15 28 -18 29 -3 0 6 -7 12 -17 13 -10 3 -15 -1 -12
-10z"/>
<path d="M1636 292 c-4 -6 -8 -55 -10 -109 -2 -54 -7 -117 -11 -141 -7 -41 -7
-42 19 -42 23 0 26 4 28 38 1 20 1 52 -1 70 -1 19 3 40 9 47 7 8 9 19 5 25 -3
6 -8 28 -10 50 -5 48 -19 78 -29 62z"/>
<path d="M2307 283 c-12 -12 -7 -50 8 -63 39 -32 2 -40 -47 -10 -42 25 -56 26
-34 1 10 -10 33 -22 52 -25 39 -8 63 -38 68 -87 3 -39 51 -99 78 -99 23 0 23
-3 -8 64 -21 47 -24 60 -13 72 10 12 9 16 -7 20 -12 3 -33 31 -53 70 -35 68
-34 68 -44 57z"/>
<path d="M3520 273 c0 -11 7 -23 15 -27 19 -7 19 3 0 28 -15 19 -15 19 -15 -1z"/>
<path d="M1387 263 c-5 -7 -2 -118 3 -118 4 0 7 -62 4 -75 -3 -12 -14 -15 -42
-12 l-37 4 27 -21 c14 -11 31 -21 37 -21 6 0 11 -5 11 -11 0 -6 12 -9 27 -7
33 4 40 29 31 113 -2 24 1 29 15 27 17 -3 23 9 10 22 -5 4 -8 13 -8 19 0 7 -8
11 -17 9 -9 -1 -19 2 -23 8 -4 6 4 10 19 10 18 0 25 6 28 23 2 16 9 21 26 19
12 -2 22 1 22 5 0 5 -18 9 -40 9 -22 0 -38 -1 -36 -4 3 -2 -1 -10 -7 -17 -10
-11 -15 -10 -28 7 -9 11 -19 17 -22 11z"/>
<path d="M1226 245 c-9 -23 -8 -25 9 -25 17 0 19 9 6 28 -7 11 -10 10 -15 -3z"/>
<path d="M2170 245 c14 -7 27 -11 30 -9 6 7 -22 24 -40 23 -9 0 -5 -6 10 -14z"/>
<path d="M1277 220 c-19 -22 -22 -40 -8 -40 5 0 14 -14 20 -31 9 -25 15 -30
32 -26 12 3 22 0 26 -9 7 -18 33 -19 33 -1 0 7 -8 22 -17 33 -10 10 -26 36
-35 57 -20 42 -27 45 -51 17z"/>
<path d="M2486 99 c-4 -41 -2 -77 4 -87 8 -15 10 -13 11 8 3 30 7 70 10 90 4
28 -1 60 -10 60 -4 0 -11 -32 -15 -71z"/>
<path d="M2050 150 c0 -5 5 -10 11 -10 5 0 7 5 4 10 -3 6 -8 10 -11 10 -2 0
-4 -4 -4 -10z"/>
<path d="M2085 130 c-3 -5 1 -10 10 -10 9 0 13 5 10 10 -3 6 -8 10 -10 10 -2
0 -7 -4 -10 -10z"/>
<path d="M3790 125 c7 -8 17 -15 22 -15 6 0 5 7 -2 15 -7 8 -17 15 -22 15 -6
0 -5 -7 2 -15z"/>
<path d="M1786 121 c-4 -5 -2 -12 3 -15 5 -4 12 -2 15 3 4 5 2 12 -3 15 -5 4
-12 2 -15 -3z"/>
<path d="M3564 29 c-3 -6 -1 -16 5 -22 8 -8 11 -5 11 11 0 24 -5 28 -16 11z"/>
<path d="M2330 10 c0 -5 7 -10 15 -10 8 0 15 5 15 10 0 6 -7 10 -15 10 -8 0
-15 -4 -15 -10z"/>
<path d="M4013 3 c9 -2 23 -2 30 0 6 3 -1 5 -18 5 -16 0 -22 -2 -12 -5z"/>
<path d="M4088 3 c7 -3 16 -2 19 1 4 3 -2 6 -13 5 -11 0 -14 -3 -6 -6z"/>
</g>
</svg>
